<svg width="98" height="30" viewBox="0 0 98 30" fill="none" xmlns="http://www.w3.org/2000/svg">
<g clip-path="url(#clip0_1_4690)">
<path fill-rule="evenodd" clip-rule="evenodd" d="M60.6402 23.4612C55.0068 27.7253 46.8415 30.0003 39.8114 30.0003C29.9539 30.0003 21.0797 26.2563 14.3661 20.0292C13.8386 19.5395 14.3112 18.8722 14.9442 19.2535C22.1895 23.5826 31.1481 26.1869 40.4021 26.1869C46.6432 26.1869 53.5088 24.8609 59.8216 22.1092C60.7753 21.6932 61.5728 22.7505 60.6402 23.4612Z" fill="#FF9900"/>
<path fill-rule="evenodd" clip-rule="evenodd" d="M62.9829 20.709C62.2656 19.7644 58.223 20.2627 56.4085 20.4837C55.8557 20.553 55.7713 20.059 56.2693 19.7037C59.489 17.3767 64.7721 18.0483 65.3882 18.8283C66.0043 19.6127 65.2279 25.0511 62.2023 27.6468C61.7381 28.0454 61.295 27.8331 61.5018 27.3044C62.1812 25.5624 63.7045 21.658 62.9829 20.709Z" fill="#FF9900"/>
<path fill-rule="evenodd" clip-rule="evenodd" d="M56.5349 3.27543V1.01341C56.5349 0.671075 56.7881 0.441406 57.0919 0.441406H66.9535C67.27 0.441406 67.5232 0.675409 67.5232 1.01341V2.95043C67.519 3.27544 67.2531 3.70011 66.7805 4.37178L61.6703 11.8642C63.5693 11.8165 65.5737 12.1069 67.2953 13.1035C67.6835 13.3289 67.789 13.6582 67.8186 13.9832V16.3969C67.8186 16.7262 67.4641 17.1119 67.0928 16.9126C64.0587 15.2789 60.0288 15.1012 56.6741 16.9299C56.3323 17.1206 55.9736 16.7392 55.9736 16.4099V14.1176C55.9736 13.7492 55.9778 13.1209 56.3365 12.5619L62.2569 3.84311H57.1045C56.788 3.84311 56.5349 3.61344 56.5349 3.27543Z" fill="#1D1E25"/>
<path fill-rule="evenodd" clip-rule="evenodd" d="M20.5606 17.3905H17.5603C17.2734 17.3689 17.0455 17.1478 17.0244 16.8662V1.05369C17.0244 0.737352 17.2818 0.486015 17.6025 0.486015H20.4002C20.6914 0.499006 20.9235 0.728683 20.9446 1.01469V3.08171H20.9995C21.7295 1.08402 23.1009 0.152344 24.9492 0.152344C26.827 0.152344 28.0001 1.08402 28.844 3.08171C29.5698 1.08402 31.2198 0.152344 32.9879 0.152344C34.2454 0.152344 35.621 0.685349 36.4608 1.88136C37.4102 3.21171 37.2161 5.14439 37.2161 6.83875L37.2119 16.8185C37.2119 17.1348 36.9545 17.3905 36.6338 17.3905H33.6377C33.3381 17.3689 33.0976 17.1218 33.0976 16.8185V8.43776C33.0976 7.77042 33.1567 6.1064 33.0132 5.47373C32.7895 4.41206 32.1186 4.11305 31.2493 4.11305C30.5235 4.11305 29.764 4.61139 29.4559 5.40873C29.1479 6.20607 29.1774 7.54075 29.1774 8.43776V16.8185C29.1774 17.1348 28.92 17.3905 28.5993 17.3905H25.6032C25.2994 17.3689 25.0631 17.1218 25.0631 16.8185L25.0589 8.43776C25.0589 6.67408 25.3416 4.07838 23.2106 4.07838C21.0543 4.07838 21.1387 6.60907 21.1387 8.43776V16.8185C21.1387 17.1348 20.8813 17.3905 20.5606 17.3905" fill="#1D1E25"/>
<path fill-rule="evenodd" clip-rule="evenodd" d="M76.0134 0.152344C80.4653 0.152344 82.8748 4.07838 82.8748 9.07044C82.8748 13.8935 80.2121 17.7199 76.0134 17.7199C71.6417 17.7199 69.2617 13.7938 69.2617 8.90143C69.2617 3.97872 71.6712 0.152344 76.0134 0.152344ZM76.0387 3.38071C73.8275 3.38071 73.6883 6.47474 73.6883 8.4031C73.6883 10.3358 73.6587 14.4612 76.0134 14.4612C78.3385 14.4612 78.4482 11.1331 78.4482 9.1051C78.4482 7.77042 78.3934 6.17574 78.0009 4.91039C77.6633 3.80972 76.9924 3.38071 76.0387 3.38071Z" fill="#1D1E25"/>
<path fill-rule="evenodd" clip-rule="evenodd" d="M88.6472 17.3905H85.6596C85.36 17.3689 85.1194 17.1218 85.1194 16.8185L85.1152 1.00169C85.1406 0.711349 85.3895 0.486015 85.6933 0.486015H88.4742C88.7358 0.499006 88.951 0.681017 89.0101 0.928019V3.34604H89.065C89.9047 1.18369 91.082 0.152344 93.1539 0.152344C94.5 0.152344 95.8124 0.650683 96.6563 2.0157C97.4412 3.28104 97.4412 5.40873 97.4412 6.93841V16.8922C97.4075 17.1695 97.1585 17.3905 96.8631 17.3905H93.8544C93.5801 17.3689 93.3523 17.1608 93.3227 16.8922V8.30343C93.3227 6.57441 93.5168 4.04372 91.4449 4.04372C90.7149 4.04372 90.0439 4.54639 89.7106 5.30906C89.2886 6.27541 89.2337 7.23742 89.2337 8.30343V16.8185C89.2295 17.1348 88.9679 17.3905 88.6472 17.3905" fill="#1D1E25"/>
<path fill-rule="evenodd" clip-rule="evenodd" d="M48.6735 9.83677C48.6735 11.0371 48.703 12.0381 48.1122 13.1041C47.6354 13.9708 46.8758 14.5038 46.0361 14.5038C44.8841 14.5038 44.2089 13.6025 44.2089 12.2721C44.2089 9.6461 46.5003 9.16943 48.6735 9.16943V9.83677ZM51.6991 17.3465C51.5007 17.5285 51.2138 17.5415 50.9901 17.4202C49.9943 16.5708 49.8128 16.1765 49.2685 15.3662C47.6227 17.0908 46.4539 17.6065 44.3229 17.6065C41.7952 17.6065 39.833 16.0075 39.833 12.8051C39.833 10.3048 41.1496 8.60176 43.0316 7.76975C44.6604 7.03307 46.9349 6.90307 48.6735 6.69941V6.30073C48.6735 5.56839 48.7283 4.70171 48.3063 4.06905C47.9434 3.50137 47.243 3.26737 46.6226 3.26737C45.4791 3.26737 44.4621 3.86971 44.2131 5.11772C44.1625 5.39506 43.9642 5.66806 43.6899 5.68106L40.7825 5.36039C40.5377 5.30406 40.2634 5.10039 40.3352 4.71472C41.0019 1.09201 44.1921 0 47.0446 0C48.5047 0 50.412 0.398672 51.564 1.53402C53.0241 2.9337 52.8848 4.80138 52.8848 6.83374V11.6351C52.8848 13.0781 53.4671 13.7108 54.0157 14.4908C54.2056 14.7682 54.2478 15.1018 54.0031 15.3098C53.3912 15.8342 52.3025 16.8092 51.7033 17.3552L51.699 17.3465" fill="#1D1E25"/>
<path fill-rule="evenodd" clip-rule="evenodd" d="M9.34046 9.83677C9.34046 11.0371 9.36999 12.0381 8.77922 13.1041C8.30238 13.9708 7.54704 14.5038 6.70309 14.5038C5.55108 14.5038 4.88014 13.6025 4.88014 12.2721C4.88014 9.6461 7.17148 9.16943 9.34046 9.16943V9.83677ZM12.366 17.3465C12.1677 17.5285 11.8808 17.5415 11.6571 17.4202C10.6612 16.5708 10.484 16.1765 9.93544 15.3662C8.28973 17.0908 7.12507 17.6065 4.98985 17.6065C2.46642 17.6065 0.5 16.0075 0.5 12.8051C0.5 10.3048 1.82079 8.60176 3.6986 7.76975C5.32744 7.03307 7.6019 6.90307 9.34046 6.6994V6.30073C9.34046 5.56839 9.39531 4.70171 8.97755 4.06904C8.61043 3.50137 7.90995 3.26737 7.29386 3.26737C6.1503 3.26737 5.12911 3.86971 4.88014 5.11772C4.8295 5.39506 4.63117 5.66806 4.36111 5.68106L1.44945 5.36039C1.2047 5.30406 0.934637 5.10038 1.00215 4.71472C1.6731 1.09201 4.85904 0 7.71162 0C9.17166 0 11.079 0.398672 12.231 1.53402C13.6911 2.9337 13.5518 4.80138 13.5518 6.83374V11.6351C13.5518 13.0781 14.1341 13.7108 14.6827 14.4908C14.8768 14.7682 14.919 15.1018 14.6743 15.3098C14.0624 15.8342 12.9737 16.8092 12.3745 17.3552L12.366 17.3465" fill="#1D1E25"/>
</g>
<defs>
<clipPath id="clip0_1_4690">
<rect width="96.9412" height="30" fill="white" transform="translate(0.5)"/>
</clipPath>
</defs>
</svg>
