<svg width="81" height="30" viewBox="0 0 81 30" fill="none" xmlns="http://www.w3.org/2000/svg">
<g clip-path="url(#clip0_1_4739)">
<path d="M65.972 28.7243C73.4811 28.7243 79.591 22.5398 79.591 14.9393C79.591 7.3343 73.4811 1.1543 65.972 1.1543C58.4614 1.1543 52.353 7.3343 52.353 14.9393C52.353 22.5398 58.4614 28.7243 65.972 28.7243ZM65.972 10.0238C68.648 10.0238 70.8274 12.2288 70.8274 14.9378C70.8274 17.6468 68.6466 19.8488 65.9705 19.8488C63.2929 19.8488 61.1166 17.6468 61.1166 14.9363C61.1166 12.2243 63.2944 10.0208 65.9705 10.0208L65.972 10.0238ZM14.5897 28.7243C22.0988 28.7243 28.2087 22.5398 28.2087 14.9393C28.2087 7.3343 22.0988 1.1543 14.5897 1.1543C7.0821 1.1543 0.970703 7.3343 0.970703 14.9393C0.970703 22.5398 7.0821 28.7243 14.5897 28.7243ZM14.5897 10.0238C17.2673 10.0238 19.4451 12.2288 19.4451 14.9378C19.4451 17.6468 17.2673 19.8488 14.5897 19.8488C11.9136 19.8488 9.73728 17.6468 9.73728 14.9363C9.73728 12.2243 11.9151 10.0208 14.5897 10.0208V10.0238ZM40.2734 9.7133L36.0922 1.3343H26.3023L35.4463 19.6643V28.2938H45.1019V19.6643L54.2459 1.3343H44.4516L40.2749 9.7133H40.2734Z" fill="#EE2E24"/>
</g>
<defs>
<clipPath id="clip0_1_4739">
<rect width="79.0588" height="30" fill="white" transform="translate(0.970703)"/>
</clipPath>
</defs>
</svg>
