<svg width="90" height="30" viewBox="0 0 90 30" fill="none" xmlns="http://www.w3.org/2000/svg">
<g clip-path="url(#clip0_1_4718)">
<path d="M38.3136 15.385C38.3136 19.5491 35.0297 22.6176 30.9996 22.6176C26.9695 22.6176 23.6855 19.5491 23.6855 15.385C23.6855 11.1915 26.9695 8.15234 30.9996 8.15234C35.0297 8.15234 38.3136 11.1915 38.3136 15.385ZM35.1118 15.385C35.1118 12.7828 33.2086 11.0023 30.9996 11.0023C28.7906 11.0023 26.8873 12.7828 26.8873 15.385C26.8873 17.961 28.7906 19.7676 30.9996 19.7676C33.2086 19.7676 35.1118 17.9578 35.1118 15.385Z" fill="#EA4335"/>
<path d="M54.0929 15.385C54.0929 19.5491 50.809 22.6176 46.7789 22.6176C42.7488 22.6176 39.4648 19.5491 39.4648 15.385C39.4648 11.1947 42.7488 8.15234 46.7789 8.15234C50.809 8.15234 54.0929 11.1915 54.0929 15.385ZM50.8911 15.385C50.8911 12.7828 48.9879 11.0023 46.7789 11.0023C44.5699 11.0023 42.6666 12.7828 42.6666 15.385C42.6666 17.961 44.5699 19.7676 46.7789 19.7676C48.9879 19.7676 50.8911 17.9578 50.8911 15.385Z" fill="#FBBC05"/>
<path d="M69.2135 8.5893V21.5741C69.2135 26.9154 66.0381 29.0969 62.2841 29.0969C58.7503 29.0969 56.6235 26.7523 55.8214 24.835L58.609 23.6839C59.1054 24.861 60.3216 26.2502 62.2808 26.2502C64.6837 26.2502 66.1728 24.7795 66.1728 22.011V20.9708H66.0611C65.3445 21.848 63.9638 22.6143 62.2216 22.6143C58.5761 22.6143 55.2363 19.4643 55.2363 15.411C55.2363 11.3284 58.5761 8.15234 62.2216 8.15234C63.9606 8.15234 65.3412 8.91865 66.0611 9.76973H66.1728V8.59256H69.2135V8.5893ZM66.3997 15.411C66.3997 12.8643 64.687 11.0023 62.5076 11.0023C60.2986 11.0023 58.4479 12.8643 58.4479 15.411C58.4479 17.9317 60.2986 19.7676 62.5076 19.7676C64.687 19.7676 66.3997 17.9317 66.3997 15.411Z" fill="#4285F4"/>
<path d="M74.2263 0.978516V22.1742H71.1035V0.978516H74.2263Z" fill="#34A853"/>
<path d="M86.396 17.7647L88.8812 19.4082C88.0791 20.5854 86.1462 22.6137 82.8064 22.6137C78.6645 22.6137 75.5713 19.4376 75.5713 15.381C75.5713 11.08 78.6908 8.14844 82.4481 8.14844C86.2317 8.14844 88.0824 11.1354 88.6872 12.7495L89.0192 13.5713L79.2727 17.5756C80.0189 19.0267 81.1793 19.7669 82.8064 19.7669C84.4369 19.7669 85.5677 18.9713 86.396 17.7647ZM78.7467 15.1626L85.262 12.4789C84.9036 11.5756 83.8254 10.9463 82.5566 10.9463C80.9294 10.9463 78.6645 12.3713 78.7467 15.1626Z" fill="#EA4335"/>
<path d="M11.865 13.5023V10.4339H22.2887C22.3906 10.9686 22.4432 11.6013 22.4432 12.286C22.4432 14.5882 21.8088 17.435 19.7641 19.4632C17.7754 21.5176 15.2344 22.6132 11.8683 22.6132C5.62918 22.6132 0.382812 17.5719 0.382812 11.3828C0.382812 5.19365 5.62918 0.152344 11.8683 0.152344C15.3198 0.152344 17.7787 1.49582 19.6261 3.24691L17.4434 5.41213C16.1186 4.17952 14.3238 3.22082 11.865 3.22082C7.30894 3.22082 3.74562 6.86321 3.74562 11.3828C3.74562 15.9023 7.30894 19.5447 11.865 19.5447C14.8202 19.5447 16.5032 18.3676 17.5814 17.298C18.4558 16.4306 19.0311 15.1915 19.2579 13.4991L11.865 13.5023Z" fill="#4285F4"/>
</g>
<defs>
<clipPath id="clip0_1_4718">
<rect width="89.4118" height="30" fill="white" transform="translate(0.264648)"/>
</clipPath>
</defs>
</svg>
