<svg width="115" height="26" viewBox="0 0 115 26" fill="none" xmlns="http://www.w3.org/2000/svg">
<g clip-path="url(#clip0_1_4709)">
<path d="M40.618 14.8526L39.9336 16.7799H39.8766C39.7625 16.3453 39.5534 15.684 39.2112 14.8904L35.5422 5.72615H31.9492V20.3323H34.3255V11.3192C34.3255 10.7523 34.3255 10.1099 34.3065 9.31627C34.2875 8.91947 34.2495 8.61714 34.2305 8.3904H34.2875C34.4016 8.95726 34.5346 9.37296 34.6297 9.63749L39.0401 20.2945H40.7131L45.0855 9.54301C45.1805 9.29737 45.2756 8.8061 45.3706 8.3904H45.4277C45.3706 9.46743 45.3326 10.4311 45.3136 11.0169V20.2756H47.842V5.68836H44.3821L40.618 14.8526ZM50.2373 9.80755H52.7087V20.2756H50.2373V9.80755ZM51.492 5.38604C51.0738 5.38604 50.7316 5.5372 50.4464 5.80173C50.1613 6.06627 50.0092 6.40639 50.0092 6.82208C50.0092 7.21889 50.1613 7.559 50.4464 7.82354C50.7316 8.08807 51.0738 8.22034 51.492 8.22034C51.9103 8.22034 52.2715 8.06918 52.5376 7.82354C52.8228 7.559 52.9749 7.21889 52.9749 6.82208C52.9749 6.42528 52.8228 6.08517 52.5376 5.80173C52.2905 5.5372 51.9293 5.38604 51.492 5.38604ZM61.4725 9.71307C61.0163 9.6186 60.541 9.56191 60.0848 9.56191C58.9632 9.56191 57.9366 9.80755 57.0811 10.2988C56.2256 10.7901 55.5413 11.4703 55.104 12.3206C54.6478 13.1898 54.4196 14.1913 54.4196 15.3439C54.4196 16.3453 54.6478 17.2334 55.085 18.0459C55.5223 18.8395 56.1306 19.482 56.948 19.9166C57.7275 20.3512 58.64 20.5779 59.6665 20.5779C60.8452 20.5779 61.8528 20.3323 62.6512 19.8788L62.6702 19.8599V17.5924L62.5752 17.668C62.214 17.9325 61.7957 18.1593 61.3775 18.2916C60.9403 18.4427 60.541 18.5183 60.1988 18.5183C59.2103 18.5183 58.4309 18.2349 57.8796 17.6113C57.3092 17.0067 57.0241 16.1753 57.0241 15.136C57.0241 14.059 57.3092 13.2087 57.8986 12.5852C58.4879 11.9616 59.2673 11.6404 60.2179 11.6404C61.0163 11.6404 61.8338 11.9049 62.5752 12.434L62.6702 12.5096V10.1099L62.6512 10.091C62.328 9.95871 61.9668 9.80755 61.4725 9.71307ZM69.6281 9.63749C69.0197 9.63749 68.4494 9.82644 67.9551 10.2232C67.5369 10.5634 67.2517 11.0546 67.0046 11.6404H66.9856V9.80755H64.5142V20.2756H66.9856V14.9282C66.9856 14.0212 67.1757 13.2654 67.5939 12.7174C68.0122 12.1506 68.5445 11.8671 69.1908 11.8671C69.4189 11.8671 69.6471 11.9238 69.9322 11.9616C70.1984 12.0372 70.3885 12.1128 70.5216 12.2073L70.6166 12.2828V9.82644L70.5596 9.80755C70.3885 9.69418 70.0463 9.63749 69.6281 9.63749ZM76.3578 9.58081C74.6278 9.58081 73.2401 10.091 72.2705 11.0924C71.282 12.0939 70.8067 13.4732 70.8067 15.2116C70.8067 16.8366 71.301 18.1593 72.2515 19.123C73.202 20.0677 74.4948 20.559 76.1106 20.559C77.8026 20.559 79.1523 20.0488 80.1219 19.0285C81.1104 18.0081 81.5857 16.6477 81.5857 14.966C81.5857 13.3032 81.1294 11.9805 80.1979 11.0169C79.3044 10.0532 77.9927 9.58081 76.3578 9.58081ZM78.3349 17.6302C77.8786 18.216 77.1562 18.4994 76.2627 18.4994C75.3692 18.4994 74.6468 18.216 74.1336 17.5924C73.6203 17.0067 73.3731 16.1564 73.3731 15.0794C73.3731 13.9645 73.6393 13.1142 74.1336 12.5096C74.6468 11.9049 75.3502 11.6026 76.2437 11.6026C77.1182 11.6026 77.8026 11.886 78.2969 12.4718C78.7911 13.0575 79.0573 13.9078 79.0573 15.0227C79.0193 16.1564 78.8101 17.0445 78.3349 17.6302ZM87.0987 14.1535C86.3193 13.8323 85.825 13.5866 85.5969 13.3788C85.4068 13.1898 85.3117 12.9253 85.3117 12.5852C85.3117 12.3017 85.4258 12.0183 85.711 11.8294C85.9961 11.6404 86.3193 11.5459 86.7946 11.5459C87.2128 11.5459 87.65 11.6215 88.0683 11.7349C88.4865 11.8482 88.8667 12.0183 89.1709 12.245L89.2659 12.3206V10.0154L89.2089 9.9965C88.9237 9.88313 88.5435 9.76976 88.0873 9.67528C87.631 9.5997 87.2128 9.56191 86.8706 9.56191C85.6919 9.56191 84.7224 9.84534 83.962 10.4689C83.2016 11.0546 82.8404 11.8482 82.8404 12.7741C82.8404 13.2654 82.9164 13.7 83.0875 14.059C83.2586 14.418 83.5057 14.7581 83.8479 15.0416C84.1901 15.3061 84.6844 15.6084 85.3688 15.8919C85.9391 16.1375 86.3763 16.3264 86.6425 16.4776C86.9086 16.6288 87.0797 16.7988 87.2128 16.9311C87.3078 17.0823 87.3649 17.2712 87.3649 17.5169C87.3649 18.216 86.8326 18.5561 85.749 18.5561C85.3307 18.5561 84.8935 18.4805 84.3802 18.3105C83.8669 18.1404 83.3917 17.8948 82.9925 17.6113L82.8974 17.5357V19.9355L82.9544 19.9544C83.3156 20.1244 83.7529 20.2378 84.2852 20.37C84.8175 20.4645 85.2927 20.5401 85.711 20.5401C86.9847 20.5401 88.0302 20.2567 88.7717 19.6331C89.5321 19.0285 89.9313 18.2538 89.9313 17.2523C89.9313 16.5532 89.7412 15.9296 89.323 15.4573C88.7717 15.0038 88.0873 14.5314 87.0987 14.1535ZM96.4519 9.58081C94.7219 9.58081 93.3342 10.091 92.3646 11.0924C91.3951 12.0939 90.9008 13.4732 90.9008 15.2116C90.9008 16.8366 91.3951 18.1593 92.3456 19.123C93.2962 20.0677 94.5889 20.559 96.2048 20.559C97.8967 20.559 99.2465 20.0488 100.216 19.0285C101.205 18.0081 101.68 16.6477 101.68 14.966C101.68 13.3032 101.224 11.9805 100.292 11.0169C99.3985 10.0532 98.0868 9.58081 96.4519 9.58081ZM98.41 17.6302C97.9537 18.216 97.2313 18.4994 96.3378 18.4994C95.4253 18.4994 94.7219 18.216 94.2087 17.5924C93.6954 17.0067 93.4482 16.1564 93.4482 15.0794C93.4482 13.9645 93.7144 13.1142 94.2087 12.5096C94.7219 11.9049 95.4253 11.6026 96.3188 11.6026C97.1743 11.6026 97.8777 11.886 98.372 12.4718C98.8662 13.0575 99.1324 13.9078 99.1324 15.0227C99.1324 16.1564 98.8853 17.0445 98.41 17.6302ZM114.892 11.8294V9.80755H112.402V6.70871L112.326 6.72761L109.968 7.42673L109.911 7.44563V9.80755H106.185V8.48487C106.185 7.88022 106.337 7.40784 106.604 7.10551C106.87 6.80319 107.269 6.65203 107.763 6.65203C108.105 6.65203 108.467 6.72761 108.866 6.89767L108.961 6.95435V4.81918L108.904 4.80028C108.562 4.68691 108.105 4.61133 107.516 4.61133C106.775 4.61133 106.128 4.78139 105.539 5.06482C104.95 5.38604 104.512 5.82063 104.189 6.40639C103.866 6.97325 103.695 7.61569 103.695 8.35261V9.80755H101.965V11.8105H103.695V20.2756H106.185V11.8294H109.911V17.2145C109.911 19.4253 110.957 20.5401 113.048 20.5401C113.39 20.5401 113.751 20.4834 114.094 20.4267C114.455 20.3512 114.721 20.2567 114.873 20.1811L114.892 20.1622V18.1404L114.797 18.216C114.645 18.3105 114.512 18.386 114.284 18.4427C114.094 18.4994 113.923 18.5183 113.789 18.5183C113.295 18.5183 112.953 18.4049 112.706 18.1215C112.478 17.857 112.364 17.4224 112.364 16.7799V11.8294H114.892Z" fill="#737373"/>
<path d="M0.0878906 0.8125H11.7413V12.3953H0.0878906V0.8125Z" fill="#F25022"/>
<path d="M12.958 0.8125H24.6115V12.3953H12.958V0.8125Z" fill="#7FBA00"/>
<path d="M0.0878906 13.6055H11.7413V25.1883H0.0878906V13.6055Z" fill="#00A4EF"/>
<path d="M12.958 13.6055H24.6115V25.1883H12.958V13.6055Z" fill="#FFB900"/>
</g>
<defs>
<clipPath id="clip0_1_4709">
<rect width="114.824" height="24.375" fill="white" transform="translate(0.0878906 0.8125)"/>
</clipPath>
</defs>
</svg>
