<svg width="98" height="30" viewBox="0 0 98 30" fill="none" xmlns="http://www.w3.org/2000/svg">
<path d="M28.289 21.2611C28.1369 20.8955 27.9944 20.5111 27.8423 20.183L27.139 18.6174L27.1105 18.5892C25.0196 14.0892 22.7861 9.51423 20.4196 5.01423L20.3246 4.82673C20.087 4.38611 19.8494 3.89861 19.6023 3.44861C19.2982 2.91423 19.0035 2.34236 18.5188 1.79861C18.0464 1.22967 17.4517 0.771282 16.7779 0.456532C16.104 0.141782 15.3678 -0.0214844 14.6222 -0.0214844C13.8766 -0.0214844 13.1403 0.141782 12.4665 0.456532C11.7926 0.771282 11.198 1.22967 10.7255 1.79861C10.2788 2.34236 9.94619 2.91423 9.64206 3.44861C9.40446 3.93611 9.16686 4.41423 8.91975 4.85486L8.82471 5.04236C6.49622 9.54236 4.22476 14.1174 2.13387 18.6174L2.07685 18.6736C1.86776 19.1611 1.62065 19.6674 1.38305 20.2111C1.23099 20.5392 1.07892 20.8955 0.926858 21.2892C0.516314 22.3203 0.385215 23.4391 0.54648 24.5353C0.707745 25.6316 1.15581 26.6674 1.84651 27.5409C2.53721 28.4143 3.44672 29.0951 4.48538 29.5162C5.52405 29.9373 6.65603 30.0842 7.76976 29.9424C8.83751 29.8037 9.86567 29.4529 10.792 28.9111C12.0276 28.2267 13.2156 27.233 14.5461 25.7986C15.8767 27.233 17.0932 28.2267 18.3002 28.9205C19.461 29.5925 20.7754 29.9634 22.1209 29.9986C23.6789 30.005 25.1867 29.4551 26.3658 28.4505C27.545 27.4459 28.3158 26.0544 28.5361 24.533C28.7906 23.4396 28.7045 22.296 28.289 21.2517V21.2611ZM14.6412 22.8174C13.0065 20.7549 11.942 18.8611 11.5809 17.2392C11.4313 16.6382 11.399 16.0146 11.4858 15.4017C11.5524 14.9236 11.7329 14.5017 11.9801 14.1455C12.5503 13.3299 13.5482 12.8236 14.6412 12.8236C15.1602 12.808 15.6751 12.9197 16.1396 13.1488C16.604 13.3779 17.0036 13.7171 17.3023 14.1361C17.5494 14.5111 17.73 14.9236 17.787 15.4017C17.8821 15.9455 17.844 16.5736 17.692 17.2392C17.3308 18.833 16.2664 20.7455 14.6412 22.8174ZM26.7493 24.2049C26.6413 24.9773 26.3301 25.7084 25.8465 26.3252C25.3629 26.942 24.7239 27.4231 23.9932 27.7205C23.2708 28.0205 22.4725 28.1049 21.6932 28.0205C20.9329 27.9267 20.1725 27.683 19.3932 27.233C18.0992 26.4441 16.9357 25.4639 15.9432 24.3267C17.9391 21.8892 19.1461 19.6674 19.6023 17.6892C19.8209 16.7517 19.8494 15.908 19.7544 15.1299C19.6357 14.3923 19.3569 13.6888 18.937 13.0674C18.4576 12.3935 17.8178 11.8462 17.0737 11.4735C16.3296 11.1008 15.5041 10.9141 14.6697 10.9299C12.9114 10.9299 11.3433 11.7361 10.3929 13.058C9.96504 13.6778 9.68854 14.387 9.58504 15.1299C9.46148 15.9174 9.49 16.7892 9.7371 17.6892C10.1933 19.6674 11.4288 21.9174 13.3962 24.3455C12.4205 25.5044 11.2543 26.4932 9.94619 27.2705C9.15735 27.7205 8.40654 27.9549 7.64621 28.0486C6.4638 28.198 5.26939 27.881 4.32261 27.1665C3.37583 26.452 2.7532 25.3978 2.59006 24.233C2.49502 23.483 2.56155 22.733 2.86568 21.8892C2.96072 21.5892 3.10328 21.2892 3.25535 20.933C3.46444 20.4455 3.71154 19.9392 3.94914 19.433L3.98716 19.3674C6.04003 14.8955 8.28298 10.3299 10.6115 5.85798L10.7065 5.67048C10.9441 5.22048 11.1817 4.74236 11.4288 4.29236C11.6759 3.81423 11.942 3.35486 12.2842 2.97986C12.5803 2.63112 12.9504 2.35067 13.3683 2.15825C13.7862 1.96582 14.2418 1.86609 14.703 1.86609C15.1641 1.86609 15.6197 1.96582 16.0376 2.15825C16.4555 2.35067 16.8256 2.63112 17.1217 2.97986C17.4544 3.35486 17.73 3.81423 17.9771 4.29236C18.2147 4.74236 18.4523 5.22986 18.6994 5.67048L18.7944 5.85798C21.1134 10.3299 23.3564 14.8955 25.4473 19.3674L25.4758 19.3955C25.7229 19.883 25.932 20.4267 26.1696 20.8955C26.3216 21.2611 26.4737 21.5517 26.5688 21.8611C26.7493 22.7049 26.8444 23.4549 26.7493 24.2049ZM39.9789 22.6111C39.2628 22.6214 38.5534 22.4726 37.9036 22.1756C37.2537 21.8786 36.6799 21.4411 36.2249 20.8955C35.2023 19.7329 34.6596 18.234 34.7042 16.6955C34.6886 15.1235 35.2488 13.5988 36.2819 12.4017C36.7597 11.8492 37.3546 11.4067 38.0245 11.1054C38.6945 10.8041 39.4233 10.6514 40.1595 10.658C40.8523 10.6393 41.5385 10.7947 42.1537 11.1095C42.7688 11.4244 43.2927 11.8884 43.676 12.458L43.7711 10.9861H46.5462V22.3111H43.7616L43.6665 20.6611C43.2713 21.2692 42.7251 21.7676 42.0797 22.1089C41.4343 22.4502 40.7111 22.6231 39.9789 22.6111ZM40.7013 19.9111C41.2525 19.9111 41.7372 19.7611 42.1934 19.4892C42.6116 19.1892 42.9537 18.7955 43.2198 18.3174C43.4574 17.8392 43.581 17.2674 43.581 16.6299C43.618 16.0762 43.5088 15.5225 43.2639 15.0229C43.019 14.5234 42.6469 14.095 42.1839 13.7799C41.739 13.5064 41.2254 13.3615 40.7013 13.3615C40.1771 13.3615 39.6635 13.5064 39.2186 13.7799C38.8004 14.0799 38.4583 14.4736 38.1922 14.9517C37.9409 15.479 37.8172 16.0567 37.831 16.6392C37.794 17.1929 37.9032 17.7466 38.1481 18.2462C38.393 18.7457 38.7651 19.174 39.2281 19.4892C39.6748 19.7611 40.1595 19.9111 40.7013 19.9111ZM51.2983 7.92986C51.2983 8.25798 51.2412 8.55798 51.0892 8.80173C50.9371 9.03611 50.728 9.25173 50.4524 9.40173C50.1768 9.55173 49.8822 9.60798 49.578 9.60798C49.2739 9.60798 48.9698 9.55173 48.6941 9.40173C48.4335 9.25858 48.2143 9.05204 48.0574 8.80173C47.9102 8.53467 47.838 8.23366 47.8483 7.92986C47.8483 7.59236 47.9148 7.29236 48.0574 7.05798C48.2094 6.77673 48.428 6.60798 48.6941 6.45798C48.9698 6.30798 49.2644 6.24236 49.578 6.24236C49.8805 6.23548 50.1797 6.30616 50.4462 6.44748C50.7128 6.5888 50.9376 6.79592 51.0987 7.04861C51.237 7.32193 51.3055 7.62445 51.2983 7.92986ZM48.0669 22.2736V10.9674H51.0892V22.2924H48.0574L48.0669 22.2736ZM59.1676 13.9299V13.9674C59.025 13.9017 58.835 13.8736 58.6924 13.8455C58.5023 13.808 58.3503 13.808 58.1697 13.808C57.3238 13.808 56.687 14.0517 56.2689 14.558C55.8127 15.0736 55.6036 15.7955 55.6036 16.7236V22.283H52.5718V10.958H55.3565L55.4515 12.6736C55.7556 12.0736 56.1168 11.6236 56.63 11.2861C57.1405 10.9582 57.7415 10.7944 58.3503 10.8174C58.5688 10.8174 58.7779 10.8361 58.9585 10.8736C59.0535 10.9017 59.1106 10.9017 59.1676 10.9299V13.9299ZM60.3841 22.2736V6.31736H63.4064V12.4111C63.8341 11.8674 64.3188 11.4455 64.927 11.1174C65.89 10.6516 66.9839 10.5195 68.0323 10.7423C69.0807 10.9652 70.0224 11.5299 70.7055 12.3455C71.7303 13.5104 72.2732 15.0131 72.2262 16.5549C72.2418 18.1268 71.6816 19.6516 70.6485 20.8486C70.1706 21.4011 69.5758 21.8436 68.9058 22.1449C68.2359 22.4462 67.5071 22.5989 66.7708 22.5924C66.0781 22.6111 65.3918 22.4557 64.7767 22.1408C64.1615 21.8259 63.6377 21.3619 63.2543 20.7924L63.1593 22.2642L60.3841 22.2924V22.2736ZM66.2291 19.9111C66.7708 19.9111 67.2555 19.7611 67.7117 19.4892C68.1299 19.1892 68.4721 18.7955 68.7382 18.3174C68.9853 17.8392 69.0993 17.2674 69.0993 16.6299C69.0993 16.0017 68.9853 15.4299 68.7382 14.9517C68.4886 14.4907 68.1379 14.0904 67.7117 13.7799C67.2669 13.5064 66.7532 13.3615 66.2291 13.3615C65.705 13.3615 65.1913 13.5064 64.7465 13.7799C64.3188 14.0799 63.9862 14.4736 63.7105 14.9517C63.4592 15.479 63.3356 16.0567 63.3494 16.6392C63.3123 17.1929 63.4216 17.7466 63.6665 18.2462C63.9114 18.7457 64.2835 19.174 64.7465 19.4892C65.1932 19.7611 65.6779 19.9111 66.2291 19.9111ZM73.3666 22.283V10.958H76.1513L76.2464 12.4299C76.5963 11.8657 77.0927 11.4039 77.6842 11.0924C78.2757 10.7809 78.9408 10.6309 79.6108 10.658C80.3769 10.6449 81.1299 10.855 81.7757 11.2618C82.4214 11.6687 82.9312 12.2543 83.2413 12.9455C83.574 13.658 83.7545 14.5392 83.7545 15.5236V22.3111H80.7228V15.9174C80.7228 15.1299 80.5422 14.5111 80.181 14.0517C79.8199 13.6017 79.3257 13.358 78.6984 13.358C78.2422 13.358 77.843 13.4517 77.4914 13.658C77.1587 13.8736 76.8831 14.1455 76.674 14.5299C76.4626 14.9184 76.3578 15.3547 76.3699 15.7955V22.283H73.3666ZM85.2657 22.283V6.30798H88.2975V12.4017C88.7081 11.8549 89.2423 11.4101 89.8577 11.1025C90.4731 10.795 91.1526 10.6331 91.8425 10.6299C92.5586 10.6195 93.268 10.7684 93.9179 11.0654C94.5678 11.3624 95.1415 11.7999 95.5966 12.3455C96.6141 13.5103 97.1531 15.0085 97.1077 16.5455C97.1242 18.1176 96.5639 19.6426 95.53 20.8392C95.0522 21.3918 94.4573 21.8343 93.7874 22.1355C93.1174 22.4368 92.3887 22.5895 91.6524 22.583C90.9596 22.6017 90.2734 22.4463 89.6582 22.1314C89.0431 21.8165 88.5192 21.3525 88.1359 20.783L88.0504 22.2549L85.2657 22.283ZM91.1392 19.9111C91.6904 19.9111 92.1751 19.7611 92.6218 19.4892C93.0495 19.1892 93.3821 18.7955 93.6578 18.3174C93.8954 17.8392 94.0189 17.2674 94.0189 16.6299C94.056 16.0762 93.9467 15.5225 93.7018 15.0229C93.4569 14.5234 93.0848 14.095 92.6218 13.7799C92.177 13.5064 91.6633 13.3615 91.1392 13.3615C90.6151 13.3615 90.1014 13.5064 89.6566 13.7799C89.2384 14.0799 88.8962 14.4736 88.6301 14.9517C88.3648 15.4743 88.2405 16.0555 88.269 16.6392C88.2319 17.1929 88.3412 17.7466 88.5861 18.2462C88.8309 18.7457 89.2031 19.174 89.6661 19.4892C90.1127 19.7611 90.5689 19.9111 91.1392 19.9111Z" fill="#FF385C"/>
</svg>
