<svg width="93" height="32" viewBox="0 0 93 32" fill="none" xmlns="http://www.w3.org/2000/svg">
<g clip-path="url(#clip0_1_4727)">
<path fill-rule="evenodd" clip-rule="evenodd" d="M81.6776 14.9143L75.8073 25.0714L70.7988 25.0914L81.6776 5.97334L92.5157 25.0914H87.4279L81.6776 14.9133V14.9143ZM65.8707 20.6697H71.4802L68.8757 25.0914H61.5644L61.5842 19.7075V6.09087H65.8915L65.8716 20.6697H65.8707ZM50.4862 6.09187C55.8349 6.11179 60.162 10.3552 60.1421 15.6006C60.1223 20.8271 55.7952 25.0714 50.4455 25.0714C45.1167 25.0515 40.7896 20.8082 40.7896 15.5617C40.8094 10.3352 45.1366 6.09187 50.4862 6.09187ZM50.4664 20.6508C53.3306 20.6508 55.6335 18.3906 55.6335 15.6006C55.6544 12.8115 53.3306 10.5315 50.4862 10.5315C47.6408 10.5115 45.3171 12.7916 45.3171 15.5817C45.2972 18.3707 47.621 20.6508 50.4654 20.6508H50.4664ZM32.8167 14.0915C32.7572 13.3046 32.5559 12.2637 32.2554 11.2626C31.637 9.19482 30.562 7.29387 29.1104 5.7014C28.3487 4.87664 27.4879 4.10964 26.2045 3.20619C25.2262 2.72129 24.2643 2.20369 23.3204 1.65427C22.6996 1.30066 21.9577 0.867359 20.9769 0.553589C19.8138 0.277872 18.625 0.126619 17.4303 0.102359C16.2699 0.0625152 15.1065 0.162125 13.9848 0.377281C12.8026 0.573511 11.8208 0.887281 10.5186 1.20205C7.57299 2.47904 5.28992 4.40449 3.3262 6.95947C-3.525 16.5668 2.66568 30.026 14.1048 31.6168C15.9882 31.8728 17.8716 31.7742 19.6538 31.3618L20.9164 31.0281C20.956 31.0082 21.0165 30.9882 21.0562 30.9882L22.4992 30.4384C22.5786 30.3986 22.6391 30.3786 22.7194 30.3398L23.3204 30.0649C24.4736 29.4933 25.5561 28.7879 26.5457 27.9631C25.6449 28.7852 24.6652 29.5155 23.6209 30.1436L23.6804 30.1834C23.8818 30.1236 24.0613 30.0649 24.2616 30.026C24.2616 30.026 24.2616 30.3398 24.222 30.281C23.9016 30.5171 24.4025 30.3009 25.0431 29.9662C25.6848 29.6326 26.3057 29.2192 26.866 28.748C27.6882 28.0607 28.4092 27.3136 29.4308 26.0964C30.4721 24.2686 31.7753 22.6768 32.3763 20.5352C32.5767 19.9655 32.7562 19.2981 32.8772 18.6098C32.9962 17.9225 33.0775 17.2153 33.0775 16.4881C33.0577 15.761 32.9774 15.0139 32.8167 14.0915ZM17.9916 30.2422C21.4975 29.6913 24.4421 27.7469 26.8462 25.0944C27.5077 24.1311 28.0284 23.2466 28.6691 22.2844C29.4704 20.3191 29.4109 18.5709 29.6708 17.3338C29.9921 15.0926 29.2304 13.2857 28.5897 11.3602C27.6079 9.12 26.3057 7.45054 24.0216 6.15363C18.2515 2.57765 10.3986 3.57873 6.65262 8.92377C6.63279 8.92377 6.53163 9.06123 6.33129 9.33615C6.59212 8.23646 7.25364 7.588 7.91416 6.95847C9.87788 5.34779 12.1619 4.0698 14.7664 3.44226C17.7119 3.1275 20.6357 3.44226 23.2599 4.71925C27.1874 6.95847 29.7918 10.4767 30.4523 14.6403V18.4922C29.6311 24.7995 24.222 29.5937 17.9916 30.2422ZM32.3962 15.8984C32.2554 6.66462 23.1003 0.43605 14.1852 1.69412C11.5808 2.34158 8.73536 3.63849 6.71213 5.4464C5.73027 6.09386 5.27009 7.29316 4.28823 8.25539C0.360788 14.0128 1.04313 21.3809 5.93061 25.8613C6.55754 26.4839 7.22697 27.0617 7.934 27.5906C3.84788 25.1332 2.00416 21.4188 1.36347 16.9015C1.36347 15.2898 1.68382 13.698 2.024 12.0874C4.30905 5.03302 11.5004 -0.0948676 19.3345 1.20205C20.6367 1.51681 21.9389 1.8505 23.2619 2.16527C24.9043 2.81273 26.5268 3.77595 27.8291 5.05394C29.1313 6.32994 30.1131 7.94162 31.095 9.53238C31.7555 10.8104 32.0768 12.4211 32.3972 13.698C32.4567 14.4252 32.4567 15.1723 32.3972 15.8994L32.3962 15.8984Z" fill="#1D1E25"/>
<path fill-rule="evenodd" clip-rule="evenodd" d="M24.2622 16.0365C24.2622 20.0059 20.9368 23.2283 16.8298 23.2283C12.7239 23.2283 9.39746 20.0059 9.39746 16.0365C9.39746 12.0681 12.7229 8.8457 16.8298 8.8457C20.9368 8.8457 24.2622 12.0681 24.2622 16.0375V16.0365Z" fill="white"/>
<path fill-rule="evenodd" clip-rule="evenodd" d="M24.3036 14.8176C24.2034 14.2678 24.0428 13.8355 23.8831 13.2268C23.2414 11.8901 22.3002 10.8492 21.0575 9.96464C16.41 6.88074 10.019 9.8471 9.33867 15.1135C9.07883 17.1963 9.81968 19.2004 11.1417 20.7334C10.741 20.32 10.3007 19.8887 10.0002 19.3967L9.96052 19.4365C10.0002 19.554 10.1609 19.6327 10.2005 19.7503C10.2005 19.7503 10.0399 19.7503 10.0805 19.7303C9.96052 19.5939 10.0607 19.81 10.2402 20.1039C10.4009 20.3987 10.6012 20.6746 10.8412 20.9296C11.1824 21.3032 11.5424 21.6369 12.1434 22.0891C13.0261 22.5403 13.8066 23.13 14.8282 23.4049C15.1088 23.4846 15.4292 23.5623 15.7505 23.6211C16.0907 23.6809 16.411 23.7008 16.772 23.7008C17.1122 23.7008 17.4732 23.6609 17.9136 23.5812C18.3677 23.5275 18.8165 23.4359 19.2555 23.3073C20.2359 23.0109 21.1391 22.5007 21.9005 21.8132C22.2814 21.4606 22.8229 21.0083 23.2424 20.4186C23.5836 19.7513 23.6232 19.4166 23.7839 19.1217C23.9436 18.8269 24.1439 18.4932 24.2848 18.041C24.3995 17.5045 24.4666 16.9588 24.4851 16.4104C24.4653 15.8605 24.4256 15.3296 24.3046 14.8186L24.3036 14.8176ZM19.5351 11.1639C20.2165 11.5564 20.3167 11.6152 19.9556 11.3602C20.4773 11.4777 20.7977 11.7726 21.118 12.0674C21.8995 12.9519 22.5402 13.9928 22.8606 15.1911C23.0411 16.5468 22.9002 17.9025 22.32 19.1018C21.2787 20.9286 19.6155 22.1469 17.6319 22.4806C17.4117 22.4806 17.1717 22.4806 16.9506 22.5005C17.5119 22.4019 17.8729 22.0483 18.8944 21.6747C19.9953 21.2823 21.238 19.4554 21.84 18.3936C23.6024 15.5049 21.5187 12.8334 19.5351 11.1639ZM15.7694 22.5194C12.7246 22.2056 10.38 19.7104 10.0597 16.8218C10.3394 18.4334 11.3014 19.6706 12.6036 20.7713C13.0648 21.0661 13.7451 21.4785 14.2063 21.7733C14.9878 22.0682 15.448 22.3829 16.2097 22.5204H15.7694V22.5194ZM23.9624 17.274C23.8236 17.8836 23.6827 18.4723 23.5419 19.0819C23.2414 19.829 22.8011 20.595 22.2 21.2036C21.599 21.8132 20.8373 22.2843 20.0766 22.7366C19.4756 23.0503 18.7139 23.2077 18.0931 23.3641C17.7321 23.4039 17.3116 23.2466 16.9506 23.2276C21.3987 23.1091 24.4434 18.9644 23.7829 14.8575C23.4616 13.6592 22.8209 12.6172 22.0394 11.5763C21.719 11.1241 21.0972 10.8492 20.637 10.3969C17.8521 8.6488 14.1666 9.00242 12.0631 11.3014C11.7681 11.6035 11.4935 11.925 11.2409 12.2636C12.3636 10.6131 14.1666 9.45464 16.3297 9.11996C17.0914 9.10003 17.8729 9.23849 18.6336 9.37595C21.9997 10.3969 24.5039 13.6592 23.9624 17.275V17.274Z" fill="#D7DF23"/>
</g>
<defs>
<clipPath id="clip0_1_4727">
<rect width="92.2353" height="31.875" fill="white" transform="translate(0.382812 0.0625)"/>
</clipPath>
</defs>
</svg>
