<svg width="18" height="19" viewBox="0 0 18 19" fill="none" xmlns="http://www.w3.org/2000/svg">
<path d="M3.66822 8.03125C2.86672 8.03125 2.21094 8.68703 2.21094 9.48854C2.21094 10.29 2.86672 10.9458 3.66822 10.9458C4.46973 10.9458 5.12551 10.29 5.12551 9.48854C5.12551 8.68703 4.46973 8.03125 3.66822 8.03125Z" fill="#7E8492"/>
<path d="M13.8694 8.03125C13.0679 8.03125 12.4121 8.68703 12.4121 9.48854C12.4121 10.29 13.0679 10.9458 13.8694 10.9458C14.6709 10.9458 15.3267 10.29 15.3267 9.48854C15.3267 8.68703 14.6709 8.03125 13.8694 8.03125Z" fill="#7E8492"/>
<path d="M8.76881 8.03125C7.9673 8.03125 7.31152 8.68703 7.31152 9.48854C7.31152 10.29 7.9673 10.9458 8.76881 10.9458C9.57032 10.9458 10.2261 10.29 10.2261 9.48854C10.2261 8.68703 9.57032 8.03125 8.76881 8.03125Z" fill="#7E8492"/>
</svg>
