<svg width="367" height="261" viewBox="0 0 367 261" fill="none" xmlns="http://www.w3.org/2000/svg">
<g clip-path="url(#clip0_1_2553)">
<mask id="mask0_1_2553" style="mask-type:luminance" maskUnits="userSpaceOnUse" x="-1" y="8" width="369" height="261">
<rect x="-0.0351562" y="8.87891" width="367.22" height="260" transform="rotate(0.0158183 -0.0351562 8.87891)" fill="white"/>
</mask>
<g mask="url(#mask0_1_2553)">
<g clip-path="url(#clip1_1_2553)">
<path d="M336.767 250.608C336.767 251.529 336.6 252.324 336.268 252.995C335.935 253.665 335.479 254.182 334.899 254.545C334.32 254.909 333.658 255.09 332.914 255.09C332.169 255.09 331.507 254.908 330.928 254.544C330.348 254.18 329.893 253.663 329.56 252.993C329.228 252.322 329.062 251.527 329.063 250.606C329.063 249.686 329.229 248.89 329.562 248.22C329.894 247.55 330.35 247.033 330.93 246.669C331.51 246.306 332.172 246.124 332.916 246.124C333.66 246.125 334.322 246.307 334.902 246.67C335.481 247.034 335.937 247.551 336.269 248.222C336.601 248.892 336.767 249.688 336.767 250.608ZM335.744 250.608C335.745 249.852 335.618 249.215 335.366 248.695C335.116 248.175 334.776 247.781 334.347 247.514C333.921 247.247 333.444 247.113 332.916 247.113C332.387 247.113 331.909 247.246 331.48 247.513C331.053 247.78 330.714 248.173 330.461 248.693C330.211 249.213 330.085 249.851 330.085 250.607C330.085 251.362 330.21 252 330.46 252.52C330.712 253.04 331.052 253.433 331.478 253.701C331.907 253.968 332.385 254.101 332.914 254.102C333.442 254.102 333.92 253.968 334.346 253.701C334.775 253.435 335.114 253.041 335.365 252.521C335.618 252.002 335.744 251.364 335.744 250.608ZM341.066 255.11C340.452 255.109 339.924 254.964 339.48 254.674C339.037 254.385 338.697 253.985 338.458 253.477C338.22 252.968 338.1 252.387 338.101 251.734C338.101 251.069 338.223 250.482 338.468 249.974C338.715 249.463 339.059 249.064 339.499 248.777C339.942 248.487 340.459 248.342 341.05 248.342C341.511 248.343 341.925 248.428 342.295 248.599C342.664 248.769 342.966 249.008 343.202 249.315C343.438 249.622 343.584 249.98 343.641 250.389L342.635 250.388C342.558 250.09 342.388 249.826 342.124 249.596C341.863 249.363 341.51 249.246 341.067 249.246C340.675 249.246 340.331 249.348 340.036 249.552C339.743 249.754 339.514 250.04 339.349 250.409C339.187 250.775 339.106 251.206 339.106 251.7C339.106 252.206 339.186 252.646 339.345 253.021C339.506 253.396 339.734 253.687 340.026 253.895C340.321 254.102 340.668 254.206 341.066 254.206C341.327 254.206 341.564 254.161 341.777 254.07C341.991 253.979 342.171 253.848 342.319 253.678C342.467 253.508 342.572 253.303 342.634 253.065L343.64 253.065C343.583 253.451 343.442 253.799 343.218 254.109C342.996 254.415 342.702 254.66 342.335 254.841C341.972 255.02 341.548 255.11 341.066 255.11ZM347.958 248.43L347.958 249.282L344.566 249.281L344.566 248.429L347.958 248.43ZM345.555 246.861L346.561 246.861L346.559 253.1C346.559 253.384 346.6 253.597 346.682 253.739C346.768 253.878 346.876 253.972 347.006 254.02C347.14 254.066 347.28 254.089 347.428 254.089C347.539 254.089 347.63 254.083 347.701 254.072C347.772 254.057 347.829 254.046 347.871 254.038L348.076 254.941C348.007 254.967 347.912 254.992 347.79 255.018C347.668 255.046 347.513 255.06 347.325 255.06C347.041 255.06 346.763 254.999 346.49 254.877C346.22 254.754 345.996 254.568 345.817 254.318C345.641 254.068 345.553 253.753 345.553 253.372L345.555 246.861Z" fill="#808D9E"/>
<path fill-rule="evenodd" clip-rule="evenodd" d="M337.842 237.973L337.893 54.9727L339.113 54.973L339.062 237.973L337.842 237.973Z" fill="#E9ECF2"/>
</g>
<g clip-path="url(#clip2_1_2553)">
<path d="M280.843 248.412C280.792 247.98 280.585 247.645 280.221 247.406C279.858 247.168 279.412 247.048 278.883 247.048C278.497 247.048 278.159 247.11 277.869 247.235C277.582 247.36 277.357 247.532 277.195 247.751C277.036 247.969 276.957 248.218 276.957 248.496C276.957 248.729 277.012 248.93 277.123 249.097C277.236 249.262 277.381 249.4 277.557 249.511C277.733 249.619 277.918 249.708 278.111 249.779C278.304 249.848 278.482 249.903 278.644 249.946L279.53 250.185C279.757 250.244 280.01 250.327 280.289 250.432C280.57 250.537 280.838 250.681 281.094 250.863C281.352 251.042 281.565 251.272 281.733 251.553C281.9 251.834 281.984 252.18 281.984 252.589C281.984 253.06 281.86 253.486 281.613 253.867C281.368 254.248 281.01 254.55 280.539 254.774C280.07 254.999 279.5 255.111 278.83 255.111C278.205 255.11 277.664 255.009 277.206 254.808C276.752 254.606 276.394 254.324 276.133 253.964C275.874 253.603 275.728 253.184 275.694 252.706L276.785 252.707C276.813 253.036 276.924 253.309 277.117 253.525C277.313 253.738 277.56 253.897 277.859 254.002C278.16 254.105 278.483 254.156 278.83 254.156C279.233 254.156 279.596 254.091 279.917 253.96C280.238 253.827 280.492 253.642 280.68 253.407C280.867 253.168 280.961 252.89 280.961 252.571C280.961 252.282 280.88 252.046 280.719 251.864C280.557 251.682 280.344 251.534 280.079 251.421C279.815 251.307 279.53 251.207 279.223 251.122L278.149 250.815C277.467 250.619 276.928 250.339 276.53 249.975C276.132 249.611 275.934 249.135 275.934 248.547C275.934 248.059 276.066 247.633 276.331 247.269C276.598 246.903 276.956 246.619 277.405 246.417C277.856 246.213 278.361 246.11 278.918 246.111C279.48 246.111 279.98 246.212 280.417 246.414C280.855 246.613 281.201 246.885 281.457 247.232C281.715 247.579 281.852 247.972 281.866 248.413L280.843 248.412ZM286.329 255.096C285.698 255.095 285.154 254.956 284.697 254.678C284.242 254.396 283.892 254.004 283.645 253.501C283.4 252.995 283.278 252.407 283.279 251.737C283.279 251.066 283.401 250.475 283.646 249.964C283.893 249.45 284.237 249.05 284.677 248.763C285.12 248.473 285.637 248.328 286.228 248.329C286.569 248.329 286.906 248.386 287.238 248.499C287.571 248.613 287.873 248.798 288.146 249.053C288.418 249.306 288.636 249.642 288.797 250.059C288.959 250.477 289.04 250.991 289.04 251.602L289.04 252.028L283.994 252.027L283.995 251.157L288.017 251.159C288.017 250.789 287.944 250.46 287.796 250.17C287.651 249.88 287.444 249.651 287.174 249.484C286.907 249.316 286.592 249.232 286.228 249.232C285.828 249.232 285.481 249.331 285.188 249.53C284.898 249.726 284.675 249.981 284.519 250.297C284.363 250.612 284.284 250.95 284.284 251.311L284.284 251.89C284.284 252.385 284.369 252.804 284.54 253.148C284.713 253.489 284.953 253.749 285.259 253.928C285.566 254.104 285.923 254.192 286.329 254.192C286.593 254.192 286.832 254.155 287.045 254.082C287.261 254.005 287.447 253.891 287.603 253.741C287.76 253.587 287.88 253.397 287.966 253.17L288.937 253.443C288.835 253.772 288.663 254.062 288.421 254.312C288.18 254.559 287.881 254.752 287.526 254.891C287.171 255.028 286.772 255.096 286.329 255.096ZM290.568 257.415L290.571 248.415L291.542 248.415L291.542 249.455L291.661 249.455C291.735 249.341 291.837 249.197 291.968 249.02C292.102 248.841 292.292 248.682 292.539 248.543C292.789 248.401 293.128 248.33 293.554 248.331C294.105 248.331 294.591 248.469 295.011 248.744C295.431 249.02 295.759 249.411 295.995 249.916C296.231 250.422 296.348 251.019 296.348 251.706C296.348 252.399 296.23 253 295.994 253.509C295.758 254.014 295.431 254.406 295.014 254.685C294.596 254.96 294.114 255.098 293.569 255.098C293.148 255.097 292.812 255.028 292.559 254.888C292.306 254.746 292.112 254.586 291.975 254.407C291.839 254.225 291.734 254.074 291.66 253.955L291.575 253.955L291.574 257.415L290.568 257.415ZM291.558 251.688C291.558 252.182 291.631 252.618 291.775 252.996C291.92 253.371 292.132 253.665 292.41 253.879C292.688 254.089 293.029 254.194 293.433 254.194C293.853 254.194 294.204 254.084 294.485 253.862C294.77 253.638 294.983 253.337 295.125 252.959C295.27 252.578 295.342 252.155 295.342 251.689C295.343 251.229 295.272 250.814 295.13 250.445C294.991 250.072 294.779 249.778 294.495 249.562C294.214 249.343 293.86 249.234 293.434 249.234C293.025 249.234 292.681 249.337 292.403 249.545C292.124 249.749 291.914 250.036 291.772 250.405C291.63 250.772 291.559 251.199 291.558 251.688Z" fill="#808D9E"/>
<path fill-rule="evenodd" clip-rule="evenodd" d="M285.381 237.959L285.432 54.959L286.652 54.9593L286.601 237.959L285.381 237.959Z" fill="#E9ECF2"/>
</g>
<g clip-path="url(#clip3_1_2553)">
<path d="M221.914 254.941L220.806 254.941L224.013 246.214L225.104 246.215L228.306 254.943L227.198 254.942L224.593 247.595L224.524 247.595L221.914 254.941ZM222.324 251.532L226.79 251.533L226.79 252.471L222.324 252.469L222.324 251.532ZM233.655 252.268L233.656 248.399L234.662 248.399L234.66 254.944L233.654 254.944L233.655 253.836L233.587 253.836C233.433 254.169 233.194 254.451 232.87 254.684C232.546 254.914 232.137 255.029 231.643 255.029C231.234 255.029 230.87 254.939 230.552 254.76C230.234 254.578 229.984 254.305 229.802 253.942C229.621 253.575 229.53 253.114 229.53 252.557L229.531 248.398L230.537 248.398L230.536 252.489C230.536 252.966 230.669 253.347 230.936 253.631C231.206 253.915 231.55 254.057 231.967 254.057C232.217 254.057 232.471 253.994 232.73 253.866C232.991 253.738 233.21 253.542 233.386 253.278C233.565 253.014 233.655 252.677 233.655 252.268ZM239.143 257.537C238.658 257.536 238.24 257.474 237.891 257.349C237.541 257.227 237.25 257.065 237.017 256.863C236.787 256.664 236.604 256.451 236.468 256.223L237.269 255.661C237.36 255.78 237.475 255.917 237.614 256.07C237.753 256.227 237.943 256.362 238.185 256.475C238.429 256.592 238.749 256.65 239.144 256.65C239.672 256.65 240.108 256.523 240.452 256.267C240.796 256.012 240.968 255.611 240.968 255.066L240.968 253.736L240.883 253.736C240.809 253.855 240.704 254.003 240.568 254.179C240.434 254.352 240.241 254.507 239.988 254.643C239.738 254.777 239.4 254.844 238.974 254.843C238.445 254.843 237.971 254.718 237.551 254.468C237.133 254.218 236.802 253.854 236.558 253.377C236.317 252.899 236.196 252.32 236.196 251.638C236.196 250.968 236.314 250.384 236.55 249.887C236.786 249.387 237.115 249.001 237.535 248.728C237.956 248.452 238.441 248.315 238.993 248.315C239.419 248.315 239.757 248.386 240.007 248.528C240.26 248.668 240.453 248.827 240.586 249.006C240.722 249.182 240.828 249.327 240.901 249.441L241.004 249.441L241.004 248.401L241.975 248.401L241.974 255.134C241.973 255.696 241.846 256.154 241.59 256.506C241.337 256.861 240.996 257.121 240.567 257.286C240.141 257.453 239.666 257.537 239.143 257.537ZM239.11 253.94C239.514 253.94 239.855 253.848 240.133 253.663C240.412 253.479 240.623 253.213 240.768 252.867C240.913 252.52 240.986 252.105 240.986 251.622C240.986 251.151 240.915 250.735 240.773 250.374C240.631 250.013 240.421 249.73 240.143 249.526C239.864 249.321 239.521 249.219 239.112 249.218C238.686 249.218 238.33 249.326 238.046 249.542C237.765 249.758 237.553 250.048 237.411 250.411C237.272 250.775 237.202 251.178 237.202 251.621C237.202 252.076 237.273 252.478 237.415 252.827C237.559 253.174 237.772 253.447 238.054 253.646C238.338 253.842 238.69 253.94 239.11 253.94Z" fill="#808D9E"/>
<path fill-rule="evenodd" clip-rule="evenodd" d="M230.482 237.943L230.532 54.9434L231.752 54.9437L231.702 237.944L230.482 237.943Z" fill="#E9ECF2"/>
</g>
<g clip-path="url(#clip4_1_2553)">
<path d="M175.47 246.2L176.526 246.201L176.525 252.439C176.525 252.996 176.422 253.469 176.218 253.858C176.013 254.247 175.724 254.543 175.352 254.744C174.98 254.946 174.541 255.047 174.035 255.046C173.558 255.046 173.133 254.96 172.761 254.786C172.389 254.61 172.097 254.36 171.884 254.036C171.671 253.712 171.564 253.327 171.564 252.881L172.604 252.881C172.604 253.128 172.665 253.344 172.787 253.529C172.912 253.711 173.083 253.853 173.298 253.955C173.514 254.058 173.76 254.109 174.036 254.109C174.34 254.109 174.598 254.045 174.811 253.917C175.024 253.79 175.186 253.602 175.297 253.355C175.411 253.105 175.468 252.8 175.468 252.439L175.47 246.2ZM182.631 252.253L182.632 248.384L183.638 248.384L183.636 254.93L182.631 254.93L182.631 253.822L182.563 253.822C182.409 254.154 182.171 254.437 181.847 254.669C181.523 254.899 181.114 255.014 180.619 255.014C180.21 255.014 179.847 254.925 179.528 254.745C179.21 254.564 178.96 254.291 178.779 253.927C178.597 253.561 178.506 253.099 178.506 252.542L178.507 248.383L179.513 248.383L179.512 252.474C179.512 252.951 179.645 253.332 179.912 253.616C180.182 253.9 180.526 254.043 180.943 254.043C181.193 254.043 181.448 253.979 181.706 253.851C181.968 253.723 182.186 253.527 182.363 253.263C182.542 252.999 182.631 252.663 182.631 252.253ZM186.486 246.203L186.484 254.931L185.478 254.93L185.481 246.203L186.486 246.203Z" fill="#808D9E"/>
<path fill-rule="evenodd" clip-rule="evenodd" d="M178.022 237.928L178.072 54.9277L180.512 54.9284L180.462 237.928L178.022 237.928Z" fill="#E9ECF2"/>
<path opacity="0.1" fill-rule="evenodd" clip-rule="evenodd" d="M156.062 237.922L156.112 54.9219L204.912 54.9353L204.862 237.935L156.062 237.922Z" fill="url(#paint0_linear_1_2553)"/>
</g>
<g clip-path="url(#clip5_1_2553)">
<path d="M122.753 246.185L123.809 246.186L123.808 252.424C123.808 252.981 123.705 253.454 123.501 253.843C123.296 254.232 123.007 254.528 122.635 254.729C122.263 254.931 121.824 255.032 121.318 255.032C120.841 255.031 120.416 254.945 120.044 254.771C119.672 254.595 119.38 254.345 119.167 254.021C118.954 253.697 118.847 253.312 118.847 252.866L119.887 252.866C119.887 253.113 119.948 253.329 120.07 253.514C120.195 253.696 120.366 253.838 120.581 253.94C120.797 254.043 121.043 254.094 121.319 254.094C121.623 254.094 121.881 254.03 122.094 253.902C122.307 253.775 122.469 253.587 122.58 253.34C122.694 253.09 122.751 252.785 122.751 252.424L122.753 246.185ZM129.914 252.238L129.915 248.369L130.921 248.369L130.919 254.915L129.914 254.915L129.914 253.807L129.846 253.807C129.692 254.139 129.453 254.422 129.13 254.654C128.806 254.884 128.397 254.999 127.902 254.999C127.493 254.999 127.129 254.91 126.811 254.73C126.493 254.549 126.243 254.276 126.062 253.912C125.88 253.546 125.789 253.084 125.789 252.527L125.79 248.368L126.796 248.368L126.795 252.459C126.795 252.936 126.928 253.317 127.195 253.601C127.465 253.885 127.809 254.028 128.226 254.028C128.476 254.028 128.731 253.964 128.989 253.836C129.251 253.708 129.469 253.512 129.646 253.248C129.825 252.984 129.914 252.648 129.914 252.238ZM133.768 250.978L133.767 254.916L132.761 254.915L132.763 248.37L133.735 248.37L133.734 249.393L133.82 249.393C133.973 249.061 134.206 248.794 134.519 248.592C134.831 248.388 135.235 248.285 135.729 248.285C136.172 248.286 136.56 248.377 136.892 248.559C137.225 248.738 137.483 249.01 137.668 249.377C137.852 249.741 137.944 250.201 137.944 250.758L137.943 254.917L136.937 254.916L136.939 250.826C136.939 250.311 136.805 249.911 136.538 249.624C136.271 249.334 135.905 249.189 135.439 249.189C135.118 249.189 134.831 249.258 134.578 249.397C134.328 249.537 134.131 249.74 133.986 250.007C133.841 250.274 133.768 250.597 133.768 250.978Z" fill="#808D9E"/>
<path fill-rule="evenodd" clip-rule="evenodd" d="M130.442 237.914L130.492 54.9141L131.712 54.9144L131.662 237.914L130.442 237.914Z" fill="#E9ECF2"/>
</g>
<g clip-path="url(#clip6_1_2553)">
<path d="M62.2144 246.169L63.4758 246.169L66.4397 253.414L66.5419 253.414L69.5098 246.171L70.7712 246.171L70.7688 254.898L69.7802 254.898L69.782 248.267L69.6968 248.267L66.9677 254.897L66.0131 254.897L63.2877 248.266L63.2024 248.266L63.2006 254.896L62.212 254.896L62.2144 246.169ZM74.6775 255.053C74.2627 255.053 73.8863 254.975 73.5483 254.818C73.2103 254.659 72.9419 254.43 72.7431 254.132C72.5443 253.831 72.445 253.467 72.4451 253.041C72.4452 252.666 72.5191 252.362 72.6669 252.129C72.8147 251.893 73.0122 251.709 73.2594 251.575C73.5066 251.442 73.7794 251.342 74.0777 251.277C74.3788 251.209 74.6814 251.155 74.9854 251.116C75.3831 251.064 75.7056 251.026 75.9528 251.001C76.2028 250.972 76.3846 250.926 76.4983 250.86C76.6147 250.795 76.673 250.681 76.6731 250.519L76.6731 250.485C76.6732 250.065 76.5582 249.738 76.3282 249.505C76.101 249.272 75.7558 249.155 75.2928 249.155C74.8126 249.155 74.4362 249.26 74.1634 249.47C73.8906 249.681 73.6988 249.905 73.5879 250.144L72.6335 249.802C72.8041 249.405 73.0314 249.095 73.3156 248.874C73.6026 248.649 73.9151 248.493 74.2532 248.405C74.5941 248.314 74.9294 248.269 75.2589 248.269C75.4691 248.269 75.7106 248.295 75.9833 248.346C76.2589 248.394 76.5245 248.495 76.7801 248.649C77.0386 248.802 77.253 249.034 77.4234 249.343C77.5938 249.653 77.6789 250.068 77.6787 250.588L77.6775 254.9L76.6719 254.9L76.6721 254.014L76.621 254.014C76.5527 254.156 76.4391 254.308 76.2799 254.47C76.1208 254.631 75.9091 254.769 75.6449 254.883C75.3806 254.996 75.0582 255.053 74.6775 255.053ZM74.8312 254.15C75.2289 254.15 75.5641 254.072 75.8369 253.915C76.1125 253.759 76.3199 253.558 76.4592 253.311C76.6013 253.063 76.6724 252.803 76.6725 252.531L76.6728 251.61C76.6301 251.661 76.5364 251.708 76.3915 251.751C76.2494 251.791 76.0846 251.826 75.8971 251.857C75.7125 251.886 75.5321 251.911 75.3559 251.934C75.1826 251.954 75.042 251.971 74.934 251.985C74.6726 252.019 74.4283 252.074 74.201 252.151C73.9766 252.225 73.7947 252.337 73.6555 252.487C73.5191 252.635 73.4508 252.837 73.4508 253.092C73.4507 253.442 73.5799 253.706 73.8383 253.885C74.0996 254.061 74.4306 254.149 74.8312 254.15ZM79.9258 257.356C79.7553 257.355 79.6034 257.341 79.4698 257.313C79.3363 257.287 79.244 257.262 79.1929 257.236L79.4488 256.35C79.6931 256.412 79.909 256.435 80.0965 256.418C80.284 256.401 80.4502 256.317 80.5952 256.167C80.7429 256.019 80.8779 255.779 81.0002 255.447L81.1878 254.935L78.7692 248.355L79.8601 248.355L81.6655 253.572L81.7337 253.572L83.5419 248.357L84.6328 248.357L81.8523 255.856C81.7272 256.194 81.5723 256.474 81.3876 256.695C81.2029 256.92 80.9884 257.086 80.744 257.194C80.5025 257.302 80.2298 257.356 79.9258 257.356Z" fill="#808D9E"/>
<path fill-rule="evenodd" clip-rule="evenodd" d="M74.3354 237.898L74.3859 54.8984L75.5782 54.8988L75.5277 237.899L74.3354 237.898Z" fill="#E9ECF2"/>
</g>
<g clip-path="url(#clip7_1_2553)">
<path d="M12.9493 234.364L10.1229 242.138L8.96859 242.138L12.2229 233.608L12.967 233.608L12.9493 234.364ZM15.3143 242.14L12.4864 234.364L12.469 233.608L13.2131 233.608L16.4745 242.14L15.3143 242.14ZM15.1687 238.982L15.1684 239.907L10.3755 239.906L10.3757 238.98L15.1687 238.982ZM18.6241 237.02L18.622 244.578L17.5321 244.578L17.5346 235.801L18.5307 235.801L18.6241 237.02ZM22.895 238.919L22.895 239.042C22.8949 239.503 22.8401 239.931 22.7306 240.325C22.6211 240.716 22.4609 241.056 22.2498 241.345C22.0427 241.634 21.7868 241.858 21.4821 242.018C21.1773 242.179 20.8277 242.259 20.4332 242.258C20.0308 242.258 19.6754 242.192 19.3668 242.059C19.0583 241.926 18.7966 241.733 18.5818 241.479C18.3671 241.225 18.1953 240.92 18.0665 240.564C17.9416 240.209 17.8557 239.808 17.809 239.363L17.8092 238.707C17.8562 238.238 17.9442 237.818 18.0732 237.447C18.2022 237.076 18.3722 236.76 18.5832 236.498C18.7981 236.233 19.0579 236.031 19.3627 235.895C19.6674 235.754 20.019 235.684 20.4174 235.684C20.8159 235.684 21.1693 235.763 21.4779 235.919C21.7865 236.071 22.0462 236.29 22.257 236.575C22.4679 236.861 22.626 237.202 22.7313 237.601C22.8406 237.995 22.8952 238.435 22.895 238.919ZM21.8052 239.042L21.8052 238.919C21.8053 238.603 21.7722 238.306 21.7058 238.028C21.6395 237.747 21.5361 237.501 21.3955 237.29C21.2588 237.075 21.0831 236.907 20.8683 236.786C20.6535 236.661 20.3976 236.598 20.1008 236.598C19.8273 236.598 19.589 236.645 19.3859 236.739C19.1866 236.832 19.0167 236.959 18.876 237.119C18.7353 237.276 18.6201 237.455 18.5302 237.658C18.4442 237.857 18.3796 238.064 18.3366 238.279L18.3362 239.797C18.4143 240.07 18.5236 240.328 18.6641 240.57C18.8047 240.809 18.9921 241.002 19.2265 241.151C19.4608 241.295 19.7557 241.368 20.1112 241.368C20.4041 241.368 20.6561 241.307 20.8671 241.186C21.0819 241.061 21.2578 240.891 21.3946 240.677C21.5352 240.462 21.6388 240.216 21.7053 239.938C21.7718 239.657 21.8051 239.358 21.8052 239.042ZM25.4481 236.799L25.4467 242.143L24.3627 242.142L24.3644 235.802L25.4191 235.803L25.4481 236.799ZM27.4289 235.768L27.4228 236.776C27.3329 236.756 27.247 236.745 27.1649 236.741C27.0868 236.733 26.997 236.729 26.8954 236.729C26.6454 236.729 26.4247 236.768 26.2333 236.846C26.0419 236.924 25.8797 237.033 25.7469 237.174C25.614 237.315 25.5085 237.482 25.4303 237.678C25.356 237.869 25.3072 238.08 25.2837 238.311L24.9789 238.486C24.979 238.103 25.0162 237.744 25.0905 237.408C25.1688 237.072 25.288 236.775 25.4482 236.518C25.6084 236.256 25.8116 236.053 26.0578 235.908C26.3078 235.76 26.6047 235.686 26.9484 235.686C27.0266 235.686 27.1164 235.696 27.218 235.715C27.3195 235.731 27.3898 235.749 27.4289 235.768Z" fill="#92929D"/>
<path fill-rule="evenodd" clip-rule="evenodd" d="M19.435 237.885L19.4855 54.8848L20.6778 54.8851L20.6273 237.885L19.435 237.885Z" fill="#F1F1F5"/>
</g>
<g filter="url(#filter0_d_1_2553)">
<path d="M188.059 62.9316C188.061 56.3042 193.435 50.9331 200.063 50.935L248.062 50.9482C254.69 50.95 260.061 56.3241 260.059 62.9515L260.055 76.9515C260.053 83.5789 254.679 88.95 248.052 88.9482L188.052 88.9316L188.059 62.9316Z" fill="white"/>
</g>
<path d="M222.58 75.0799C221.841 75.0797 221.184 74.9552 220.611 74.7065C220.041 74.4578 219.594 74.1179 219.269 73.6869C218.948 73.2527 218.789 72.7604 218.792 72.2103C218.789 71.7827 218.882 71.39 219.071 71.0321C219.26 70.6742 219.515 70.3759 219.837 70.1374C220.162 69.8955 220.523 69.7415 220.921 69.6753L220.921 69.6057C220.397 69.4896 219.973 69.2227 219.648 68.8049C219.327 68.3839 219.168 67.8983 219.171 67.3481C219.168 66.8245 219.314 66.3572 219.609 65.9463C219.904 65.5354 220.309 65.2123 220.823 64.9771C221.336 64.7387 221.923 64.6195 222.583 64.6197C223.236 64.6199 223.817 64.7393 224.328 64.9781C224.841 65.2136 225.245 65.5368 225.54 65.9479C225.838 66.359 225.988 66.8263 225.987 67.35C225.987 67.9002 225.823 68.3857 225.495 68.8066C225.17 69.2241 224.751 69.4908 224.237 69.6066L224.237 69.6762C224.634 69.7426 224.992 69.8969 225.31 70.1389C225.632 70.3776 225.887 70.676 226.076 71.034C226.268 71.392 226.364 71.7848 226.364 72.2123C226.364 72.7625 226.201 73.2547 225.876 73.6888C225.551 74.1196 225.104 74.4592 224.534 74.7076C223.967 74.956 223.315 75.0801 222.58 75.0799ZM222.58 73.658C222.961 73.6581 223.293 73.5936 223.574 73.4644C223.856 73.3319 224.075 73.1464 224.231 72.9078C224.387 72.6692 224.466 72.3941 224.47 72.0826C224.466 71.7577 224.382 71.471 224.216 71.2224C224.054 70.9705 223.83 70.7732 223.545 70.6306C223.264 70.488 222.942 70.4167 222.581 70.4166C222.216 70.4165 221.892 70.4876 221.606 70.6301C221.321 70.7725 221.096 70.9696 220.93 71.2215C220.768 71.47 220.688 71.7567 220.691 72.0815C220.688 72.3931 220.764 72.6682 220.92 72.9069C221.075 73.1422 221.294 73.3262 221.576 73.4589C221.861 73.5915 222.196 73.6579 222.58 73.658ZM222.581 69.0195C222.893 69.0196 223.168 68.9567 223.407 68.8308C223.649 68.705 223.839 68.5294 223.979 68.304C224.118 68.0787 224.189 67.8185 224.193 67.5235C224.189 67.2319 224.12 66.9766 223.984 66.7578C223.848 66.5357 223.659 66.365 223.417 66.2456C223.175 66.1229 222.897 66.0615 222.582 66.0614C222.261 66.0614 221.977 66.1226 221.732 66.2452C221.49 66.3644 221.301 66.535 221.165 66.7571C221.032 66.9758 220.968 67.231 220.971 67.5226C220.968 67.8176 221.034 68.0778 221.17 68.3032C221.309 68.5253 221.499 68.7011 221.741 68.8304C221.986 68.9564 222.266 69.0194 222.581 69.0195ZM227.998 74.9422L227.998 73.6098L231.534 70.1456C231.872 69.8043 232.154 69.5011 232.379 69.236C232.605 68.9709 232.774 68.7141 232.886 68.4656C232.999 68.217 233.056 67.9519 233.056 67.6702C233.056 67.3487 232.983 67.0735 232.837 66.8448C232.691 66.6128 232.491 66.4337 232.236 66.3077C231.981 66.1817 231.691 66.1186 231.366 66.1186C231.031 66.1185 230.738 66.188 230.486 66.3271C230.234 66.4629 230.038 66.6568 229.899 66.9086C229.763 67.1605 229.695 67.4604 229.695 67.8084L227.94 67.8079C227.94 67.1616 228.088 66.5999 228.383 66.1227C228.678 65.6455 229.084 65.2761 229.601 65.0144C230.122 64.7527 230.718 64.6219 231.391 64.6221C232.074 64.6223 232.674 64.7501 233.191 65.0054C233.708 65.2608 234.109 65.6106 234.393 66.0548C234.682 66.499 234.826 67.0061 234.826 67.5762C234.825 67.9573 234.752 68.3318 234.606 68.6997C234.461 69.0676 234.204 69.4752 233.836 69.9225C233.471 70.3698 232.959 70.9116 232.299 71.5478L230.543 73.3321L230.543 73.4017L234.978 73.4029L234.978 74.9441L227.998 74.9422ZM240.456 75.1395C239.638 75.1393 238.935 74.932 238.348 74.5175C237.765 74.0997 237.316 73.498 237.002 72.7124C236.69 71.9235 236.535 70.9739 236.535 69.8636C236.539 68.7533 236.696 67.8087 237.008 67.0299C237.323 66.2478 237.773 65.6513 238.356 65.2405C238.943 64.8297 239.644 64.6244 240.459 64.6246C241.275 64.6248 241.975 64.8305 242.562 65.2417C243.149 65.6528 243.597 66.2495 243.909 67.0318C244.223 67.8141 244.381 68.7587 244.38 69.8658C244.38 70.9794 244.222 71.9306 243.907 72.7193C243.595 73.5047 243.146 74.1045 242.559 74.5187C241.976 74.9328 241.275 75.1398 240.456 75.1395ZM240.457 73.5834C241.093 73.5836 241.595 73.2705 241.963 72.6442C242.335 72.0146 242.521 71.0883 242.521 69.8652C242.521 69.0565 242.437 68.3771 242.268 67.8268C242.099 67.2766 241.861 66.8622 241.552 66.5837C241.244 66.3019 240.88 66.161 240.459 66.1608C239.826 66.1607 239.325 66.4754 238.957 67.105C238.589 67.7313 238.403 68.651 238.399 69.8641C238.396 70.6761 238.477 71.3589 238.643 71.9125C238.811 72.466 239.05 72.8837 239.358 73.1655C239.666 73.444 240.032 73.5833 240.457 73.5834Z" fill="#1D1E25"/>
<rect x="199.059" y="65.0781" width="10" height="10" rx="2" transform="rotate(0.0158183 199.059 65.0781)" fill="#2280FF"/>
<path d="M-8.9638 148.762C-4.46551 150.609 6.16952 155.758 12.7233 161.576C20.9155 168.848 47.4241 176.817 63.3354 159.513C79.2466 142.209 86.4786 135.98 98.0469 135.983C109.615 135.986 117.328 133.565 130.348 115.568C143.367 97.5713 147.614 88.8759 163.614 88.9228C179.082 88.9682 186.908 99.6603 190.602 105.546L199.275 119.049C202.808 124.704 212.309 134.283 226.224 135.306C240.138 136.33 250.837 131.157 261.936 122.528C272.272 114.492 290.379 105.92 305.799 122.54C318.135 135.836 324.432 140.546 326.038 141.239" stroke="#2280FF" stroke-width="3" stroke-linecap="round"/>
<path d="M-32.9661 155.49C-27.756 156.837 -15.4378 160.589 -7.84642 164.827C1.64277 170.124 32.3462 175.932 50.7727 163.33C69.1992 150.728 77.5746 146.191 90.9731 146.195C104.372 146.199 113.305 144.436 128.382 131.329C143.459 118.222 148.377 111.888 166.908 111.924C184.823 111.959 193.889 119.748 198.168 124.036L208.214 133.872C212.307 137.992 223.313 144.97 239.428 145.717C255.544 146.465 267.935 142.698 280.789 136.414C292.759 130.561 313.73 124.32 331.592 136.428C345.881 146.114 353.175 149.545 355.035 150.05" stroke="#FF5555" stroke-width="3" stroke-linecap="round"/>
</g>
<rect x="-0.046875" y="50.8789" width="59.78" height="203" transform="rotate(0.0158183 -0.046875 50.8789)" fill="white"/>
<path d="M15.5135 60.1566L15.5111 68.8839L14.4543 68.8836L14.4564 61.2643L14.4053 61.2643L12.2742 62.6785L12.2745 61.6046L14.4567 60.1563L15.5135 60.1566ZM19.062 66.4985L19.0453 65.2542L19.2498 65.2543L22.1143 62.3403L23.3586 62.3406L20.3066 65.425L20.2214 65.425L19.062 66.4985ZM18.1238 68.8846L18.1262 60.1574L19.1319 60.1576L19.1295 68.8849L18.1238 68.8846ZM22.2829 68.8858L19.727 65.6464L20.4431 64.9478L23.5613 68.8861L22.2829 68.8858Z" fill="#808D9E"/>
<path d="M22.562 239.005C21.9199 239.005 21.3731 238.83 20.9215 238.481C20.4699 238.128 20.1248 237.618 19.8864 236.95C19.6479 236.28 19.5288 235.47 19.5291 234.521C19.5294 233.578 19.6489 232.773 19.8877 232.105C20.1294 231.435 20.4761 230.924 20.9279 230.571C21.3826 230.216 21.9281 230.039 22.5644 230.039C23.2008 230.039 23.7448 230.217 24.1964 230.572C24.6508 230.925 24.9973 231.436 25.2357 232.107C25.477 232.774 25.5975 233.58 25.5973 234.523C25.597 235.472 25.4775 236.281 25.2387 236.952C24.9998 237.619 24.6545 238.129 24.2027 238.481C23.7509 238.831 23.204 239.005 22.562 239.005ZM22.5622 238.068C23.1986 238.068 23.693 237.761 24.0454 237.148C24.3979 236.534 24.5742 235.659 24.5746 234.523C24.5748 233.767 24.494 233.124 24.3322 232.592C24.1732 232.061 23.9432 231.656 23.6422 231.378C23.344 231.099 22.9846 230.96 22.5642 230.96C21.9335 230.959 21.4405 231.27 21.0852 231.892C20.7299 232.512 20.5521 233.388 20.5518 234.522C20.5516 235.277 20.631 235.919 20.7899 236.448C20.9489 236.976 21.1775 237.378 21.4757 237.654C21.7767 237.93 22.1389 238.068 22.5622 238.068Z" fill="#808D9E"/>
<g clip-path="url(#clip8_1_2553)">
<path d="M2.64509 204.879L2.6453 204.112L5.52685 200.959C5.86502 200.59 6.14352 200.269 6.36234 199.997C6.58117 199.721 6.74317 199.463 6.84835 199.221C6.95637 198.977 7.01042 198.721 7.0105 198.454C7.01058 198.147 6.93679 197.882 6.78913 197.657C6.6443 197.433 6.44548 197.259 6.19268 197.137C5.93987 197.015 5.6558 196.954 5.34046 196.954C5.00523 196.954 4.7126 197.023 4.46256 197.162C4.21536 197.299 4.02355 197.49 3.88711 197.737C3.75352 197.985 3.68668 198.274 3.68659 198.607L2.68091 198.606C2.68105 198.095 2.79907 197.646 3.03497 197.26C3.27088 196.874 3.59198 196.573 3.99829 196.357C4.40744 196.141 4.86628 196.033 5.3748 196.033C5.88616 196.033 6.33926 196.142 6.73409 196.358C7.12891 196.574 7.43849 196.865 7.66282 197.231C7.88715 197.598 7.99926 198.006 7.99913 198.454C7.99904 198.776 7.94072 199.089 7.82416 199.396C7.71044 199.7 7.51148 200.04 7.22728 200.415C6.94593 200.787 6.55518 201.241 6.05503 201.778L4.09423 203.874L4.09421 203.942L8.15103 203.943L8.15077 204.881L2.64509 204.879ZM12.843 205.001C12.2009 205.001 11.6541 204.826 11.2025 204.477C10.7509 204.124 10.4059 203.614 10.1674 202.947C9.92896 202.276 9.80987 201.466 9.81013 200.517C9.81039 199.574 9.92993 198.769 10.1688 198.101C10.4104 197.431 10.7571 196.92 11.2089 196.568C11.6636 196.213 12.2091 196.035 12.8455 196.035C13.4818 196.036 14.0258 196.213 14.4774 196.569C14.9319 196.921 15.2783 197.432 15.5168 198.103C15.7581 198.771 15.8786 199.576 15.8783 200.519C15.878 201.468 15.7585 202.278 15.5197 202.948C15.2809 203.616 14.9356 204.125 14.4838 204.478C14.032 204.827 13.485 205.001 12.843 205.001ZM12.8432 204.064C13.4796 204.064 13.974 203.757 14.3264 203.144C14.6789 202.53 14.8553 201.655 14.8556 200.519C14.8558 199.763 14.775 199.12 14.6132 198.588C14.4543 198.057 14.2243 197.652 13.9232 197.374C13.625 197.095 13.2657 196.956 12.8452 196.956C12.2145 196.956 11.7215 197.267 11.3663 197.889C11.011 198.508 10.8332 199.384 10.8329 200.518C10.8326 201.273 10.912 201.916 11.071 202.444C11.2299 202.972 11.4585 203.374 11.7567 203.65C12.0578 203.926 12.4199 204.064 12.8432 204.064ZM20.4287 205.003C19.7867 205.003 19.2398 204.828 18.7882 204.479C18.3366 204.126 17.9916 203.616 17.7531 202.949C17.5147 202.278 17.3956 201.468 17.3958 200.52C17.3961 199.576 17.5156 198.771 17.7545 198.103C17.9961 197.433 18.3429 196.922 18.7947 196.57C19.2493 196.215 19.7948 196.037 20.4312 196.037C21.0675 196.038 21.6115 196.215 22.0631 196.571C22.5176 196.923 22.864 197.434 23.1025 198.105C23.3438 198.773 23.4643 199.578 23.464 200.521C23.4638 201.47 23.3442 202.28 23.1054 202.95C22.8666 203.618 22.5213 204.128 22.0695 204.48C21.6177 204.829 21.0707 205.004 20.4287 205.003ZM20.429 204.066C21.0653 204.066 21.5597 203.759 21.9122 203.146C22.2646 202.532 22.441 201.657 22.4413 200.521C22.4415 199.765 22.3607 199.122 22.1989 198.591C22.04 198.059 21.81 197.654 21.5089 197.376C21.2107 197.097 20.8514 196.958 20.4309 196.958C19.8002 196.958 19.3073 197.269 18.952 197.891C18.5967 198.51 18.4189 199.386 18.4186 200.52C18.4184 201.276 18.4977 201.918 18.6567 202.446C18.8156 202.975 19.0442 203.377 19.3424 203.652C19.6435 203.928 20.0057 204.066 20.429 204.066Z" fill="#808D9E"/>
</g>
<g clip-path="url(#clip9_1_2553)">
<path d="M2.44982 169.089L2.45006 168.22L6.28697 162.153L6.91765 162.153L6.91728 163.5L6.49114 163.5L3.59215 168.084L3.59213 168.152L8.7569 168.154L8.75664 169.091L2.44982 169.089ZM6.55728 170.88L6.55785 168.826L6.55796 168.421L6.55969 162.153L7.56537 162.153L7.56297 170.881L6.55728 170.88ZM13.2854 171.001C12.6433 171.001 12.0965 170.826 11.6449 170.477C11.1933 170.124 10.8482 169.614 10.6098 168.947C10.3713 168.276 10.2522 167.466 10.2525 166.518C10.2528 165.574 10.3723 164.769 10.6111 164.102C10.8528 163.431 11.1995 162.92 11.6513 162.568C12.106 162.213 12.6515 162.035 13.2878 162.035C13.9242 162.036 14.4682 162.213 14.9198 162.569C15.3742 162.921 15.7207 163.432 15.9591 164.103C16.2004 164.771 16.321 165.576 16.3207 166.519C16.3204 167.468 16.2009 168.278 15.9621 168.948C15.7232 169.616 15.3779 170.126 14.9261 170.478C14.4743 170.827 13.9274 171.002 13.2854 171.001ZM13.2856 170.064C13.922 170.064 14.4164 169.757 14.7688 169.144C15.1213 168.53 15.2977 167.655 15.298 166.519C15.2982 165.763 15.2174 165.12 15.0556 164.589C14.8967 164.057 14.6667 163.652 14.3656 163.374C14.0674 163.095 13.708 162.956 13.2876 162.956C12.6569 162.956 12.1639 163.267 11.8086 163.889C11.4534 164.508 11.2756 165.384 11.2752 166.518C11.275 167.274 11.3544 167.916 11.5133 168.444C11.6723 168.973 11.9009 169.375 12.1991 169.65C12.5002 169.926 12.8623 170.064 13.2856 170.064ZM20.8711 171.004C20.229 171.003 19.6822 170.828 19.2306 170.479C18.779 170.127 18.434 169.616 18.1955 168.949C17.9571 168.278 17.838 167.469 17.8382 166.52C17.8385 165.577 17.958 164.771 18.1968 164.104C18.4385 163.433 18.7852 162.922 19.237 162.57C19.6917 162.215 20.2372 162.037 20.8736 162.038C21.5099 162.038 22.0539 162.215 22.5055 162.571C22.96 162.923 23.3064 163.435 23.5449 164.105C23.7862 164.773 23.9067 165.578 23.9064 166.521C23.9061 167.47 23.7866 168.28 23.5478 168.95C23.309 169.618 22.9637 170.128 22.5118 170.48C22.06 170.829 21.5131 171.004 20.8711 171.004ZM20.8713 170.066C21.5077 170.066 22.0021 169.759 22.3545 169.146C22.707 168.532 22.8834 167.657 22.8837 166.521C22.8839 165.765 22.8031 165.122 22.6413 164.591C22.4824 164.059 22.2524 163.654 21.9513 163.376C21.6531 163.097 21.2938 162.958 20.8733 162.958C20.2426 162.958 19.7496 163.269 19.3943 163.891C19.0391 164.51 18.8613 165.386 18.861 166.52C18.8607 167.276 18.9401 167.918 19.0991 168.446C19.258 168.975 19.4866 169.377 19.7848 169.652C20.0859 169.928 20.448 170.066 20.8713 170.066Z" fill="#808D9E"/>
</g>
<g clip-path="url(#clip10_1_2553)">
<path d="M5.56133 136.999C5.20338 136.993 4.84545 136.925 4.48753 136.794C4.12961 136.664 3.80297 136.443 3.5076 136.134C3.21223 135.821 2.97513 135.399 2.7963 134.868C2.61747 134.334 2.52816 133.663 2.52839 132.856C2.5286 132.084 2.60123 131.399 2.74628 130.802C2.89134 130.203 3.1017 129.699 3.37738 129.29C3.65307 128.878 3.98554 128.566 4.3748 128.353C4.76691 128.14 5.2087 128.033 5.70017 128.033C6.18881 128.034 6.62344 128.132 7.00407 128.328C7.38754 128.521 7.69996 128.791 7.94135 129.138C8.18273 129.484 8.33887 129.884 8.40977 130.335L7.36999 130.335C7.27351 129.943 7.0861 129.618 6.80776 129.359C6.52942 129.1 6.16014 128.971 5.69991 128.971C5.02378 128.971 4.49103 129.265 4.10166 129.853C3.71513 130.441 3.5203 131.266 3.51717 132.328L3.58535 132.328C3.74451 132.087 3.93349 131.881 4.15228 131.711C4.37392 131.537 4.61828 131.404 4.88535 131.31C5.15242 131.216 5.4351 131.17 5.7334 131.17C6.2334 131.17 6.69075 131.295 7.10545 131.545C7.52016 131.792 7.85245 132.135 8.10233 132.572C8.35221 133.007 8.47707 133.506 8.47692 134.068C8.47677 134.608 8.35589 135.102 8.11429 135.551C7.87269 135.997 7.5331 136.352 7.09553 136.616C6.6608 136.877 6.1494 137.005 5.56133 136.999ZM5.56159 136.062C5.91955 136.062 6.2406 135.972 6.52474 135.794C6.81172 135.615 7.03764 135.375 7.20249 135.074C7.37019 134.772 7.45409 134.437 7.45419 134.068C7.45429 133.707 7.37341 133.379 7.21156 133.084C7.05255 132.785 6.83245 132.548 6.55125 132.372C6.27289 132.195 5.95473 132.107 5.59678 132.107C5.32689 132.107 5.07545 132.161 4.84247 132.269C4.60949 132.374 4.4049 132.519 4.22871 132.703C4.05537 132.888 3.91895 133.1 3.81945 133.338C3.71995 133.574 3.67017 133.823 3.67009 134.084C3.67 134.431 3.75087 134.754 3.91272 135.056C4.07741 135.357 4.30178 135.6 4.58582 135.785C4.8727 135.969 5.19796 136.062 5.56159 136.062ZM13.0842 137.001C12.4421 137.001 11.8953 136.826 11.4437 136.477C10.9921 136.124 10.6471 135.614 10.4086 134.947C10.1702 134.276 10.0511 133.466 10.0513 132.518C10.0516 131.574 10.1711 130.769 10.41 130.101C10.6516 129.431 10.9984 128.92 11.4502 128.568C11.9048 128.213 12.4503 128.035 13.0867 128.035C13.723 128.036 14.267 128.213 14.7186 128.569C15.1731 128.921 15.5195 129.432 15.758 130.103C15.9993 130.771 16.1198 131.576 16.1195 132.519C16.1193 133.468 15.9997 134.278 15.7609 134.948C15.5221 135.616 15.1768 136.126 14.725 136.478C14.2732 136.827 13.7262 137.002 13.0842 137.001ZM13.0845 136.064C13.7208 136.064 14.2152 135.757 14.5677 135.144C14.9201 134.53 15.0965 133.655 15.0968 132.519C15.097 131.763 15.0162 131.12 14.8544 130.588C14.6955 130.057 14.4655 129.652 14.1644 129.374C13.8662 129.095 13.5069 128.956 13.0864 128.956C12.4557 128.956 11.9627 129.267 11.6075 129.889C11.2522 130.508 11.0744 131.384 11.0741 132.518C11.0739 133.274 11.1532 133.916 11.3122 134.444C11.4711 134.972 11.6997 135.375 11.9979 135.65C12.299 135.926 12.6612 136.064 13.0845 136.064ZM20.6699 137.003C20.0279 137.003 19.481 136.828 19.0294 136.479C18.5778 136.126 18.2328 135.616 17.9943 134.949C17.7559 134.278 17.6368 133.469 17.6371 132.52C17.6373 131.576 17.7569 130.771 17.9957 130.104C18.2373 129.433 18.5841 128.922 19.0359 128.57C19.4905 128.215 20.036 128.037 20.6724 128.038C21.3087 128.038 21.8527 128.215 22.3043 128.571C22.7588 128.923 23.1052 129.435 23.3437 130.105C23.585 130.773 23.7055 131.578 23.7052 132.521C23.705 133.47 23.5854 134.28 23.3466 134.95C23.1078 135.618 22.7625 136.128 22.3107 136.48C21.8589 136.829 21.312 137.004 20.6699 137.003ZM20.6702 136.066C21.3065 136.066 21.8009 135.759 22.1534 135.146C22.5058 134.532 22.6822 133.657 22.6825 132.521C22.6827 131.765 22.6019 131.122 22.4401 130.591C22.2812 130.059 22.0512 129.654 21.7501 129.376C21.4519 129.097 21.0926 128.958 20.6721 128.958C20.0414 128.958 19.5485 129.269 19.1932 129.891C18.8379 130.51 18.6601 131.386 18.6598 132.52C18.6596 133.276 18.7389 133.918 18.8979 134.446C19.0568 134.975 19.2854 135.377 19.5836 135.652C19.8847 135.928 20.2469 136.066 20.6702 136.066Z" fill="#808D9E"/>
</g>
<g clip-path="url(#clip11_1_2553)">
<path d="M5.46785 102.999C4.88262 102.999 4.36561 102.895 3.9168 102.688C3.47084 102.477 3.1229 102.189 2.87301 101.822C2.62311 101.453 2.49964 101.033 2.50261 100.561C2.49988 100.192 2.57241 99.8507 2.72023 99.5383C2.86804 99.223 3.06982 98.9602 3.32556 98.7501C3.58414 98.5371 3.87253 98.4022 4.19073 98.3455L4.19074 98.2943C3.77316 98.1863 3.44084 97.9518 3.19378 97.5909C2.94672 97.2272 2.82467 96.8139 2.82764 96.3508C2.82492 95.9076 2.93725 95.5113 3.16462 95.162C3.39199 94.8126 3.70456 94.5371 4.10234 94.3355C4.50297 94.1339 4.95896 94.0332 5.47033 94.0333C5.97601 94.0335 6.42768 94.1345 6.82536 94.3363C7.22303 94.5381 7.53545 94.8137 7.76263 95.1632C7.99265 95.5127 8.10901 95.9091 8.11173 96.3522C8.10876 96.8153 7.98223 97.2286 7.73213 97.5922C7.48487 97.9529 7.15668 98.1872 6.74756 98.2951L6.74754 98.3462C7.06287 98.4031 7.34692 98.5381 7.59971 98.7513C7.85249 98.9616 8.05412 99.2244 8.2046 99.5398C8.35508 99.8523 8.43169 100.193 8.43443 100.563C8.43146 101.034 8.3035 101.455 8.05056 101.824C7.80046 102.19 7.45237 102.478 7.00629 102.689C6.56305 102.896 6.05024 102.999 5.46785 102.999ZM5.46811 102.062C5.863 102.062 6.20392 101.998 6.49089 101.87C6.77786 101.743 6.9995 101.562 7.15581 101.329C7.31213 101.096 7.39175 100.824 7.39467 100.511C7.39192 100.182 7.30678 99.8904 7.13923 99.6375C6.97169 99.3846 6.74305 99.1857 6.45332 99.0407C6.16643 98.8957 5.83832 98.8232 5.469 98.8231C5.09684 98.823 4.76444 98.8954 4.47178 99.0402C4.18197 99.185 3.95322 99.3838 3.78554 99.6366C3.6207 99.8894 3.53965 100.181 3.5424 100.51C3.53947 100.823 3.61468 101.095 3.76803 101.328C3.92421 101.561 4.14718 101.742 4.43691 101.87C4.72665 101.998 5.07038 102.062 5.46811 102.062ZM5.46925 97.9197C5.78175 97.9198 6.05876 97.8574 6.30027 97.7324C6.54462 97.6075 6.73643 97.4328 6.8757 97.2084C7.01497 96.984 7.08606 96.7213 7.08899 96.4201C7.08623 96.1247 7.01669 95.8676 6.88039 95.6488C6.74409 95.4272 6.55522 95.2566 6.31377 95.1373C6.07233 95.015 5.79109 94.9539 5.47007 94.9538C5.14337 94.9537 4.85784 95.0147 4.61349 95.1368C4.36914 95.256 4.18017 95.4264 4.04658 95.648C3.913 95.8667 3.84759 96.1238 3.85035 96.4193C3.84743 96.7204 3.91411 96.9832 4.05042 97.2077C4.18956 97.4321 4.38127 97.6069 4.62555 97.732C4.86984 97.857 5.15107 97.9196 5.46925 97.9197ZM12.9992 103.001C12.3572 103.001 11.8104 102.826 11.3588 102.477C10.9071 102.124 10.5621 101.614 10.3237 100.947C10.0852 100.276 9.96612 99.4664 9.96638 98.5175C9.96664 97.5744 10.0862 96.769 10.325 96.1014C10.5667 95.431 10.9134 94.9198 11.3652 94.5676C11.8198 94.2126 12.3653 94.0352 13.0017 94.0354C13.6381 94.0356 14.1821 94.2133 14.6337 94.5685C15.0881 94.9209 15.4346 95.4324 15.673 96.1029C15.9143 96.7706 16.0348 97.576 16.0346 98.5192C16.0343 99.4681 15.9148 100.278 15.6759 100.948C15.4371 101.616 15.0918 102.125 14.64 102.478C14.1882 102.827 13.6413 103.002 12.9992 103.001ZM12.9995 102.064C13.6359 102.064 14.1303 101.757 14.4827 101.144C14.8351 100.53 15.0115 99.6553 15.0118 98.5189C15.012 97.7632 14.9313 97.1198 14.7695 96.5885C14.6105 96.0572 14.3805 95.6523 14.0795 95.3738C13.7812 95.0953 13.4219 94.956 13.0015 94.9559C12.3708 94.9557 11.8778 95.2666 11.5225 95.8887C11.1672 96.5079 10.9894 97.3843 10.9891 98.5178C10.9889 99.2735 11.0683 99.9156 11.2272 100.444C11.3862 100.972 11.6147 101.375 11.913 101.65C12.214 101.926 12.5762 102.064 12.9995 102.064ZM20.5849 103.003C19.9429 103.003 19.3961 102.828 18.9445 102.479C18.4929 102.126 18.1478 101.616 17.9094 100.949C17.6709 100.278 17.5518 99.4685 17.5521 98.5196C17.5524 97.5764 17.6719 96.7711 17.9107 96.1035C18.1524 95.4331 18.4991 94.9219 18.9509 94.5697C19.4056 94.2147 19.9511 94.0373 20.5874 94.0375C21.2238 94.0377 21.7678 94.2154 22.2194 94.5706C22.6738 94.923 23.0203 95.4345 23.2587 96.105C23.5 96.7727 23.6205 97.5781 23.6203 98.5213C23.62 99.4702 23.5005 100.28 23.2616 100.95C23.0228 101.618 22.6775 102.128 22.2257 102.48C21.7739 102.829 21.227 103.004 20.5849 103.003ZM20.5852 102.066C21.2216 102.066 21.716 101.759 22.0684 101.146C22.4209 100.532 22.5972 99.6574 22.5975 98.521C22.5978 97.7653 22.517 97.1218 22.3552 96.5906C22.1962 96.0593 21.9662 95.6544 21.6652 95.3759C21.367 95.0974 21.0076 94.9581 20.5872 94.958C19.9565 94.9578 19.4635 95.2687 19.1082 95.8908C18.7529 96.51 18.5751 97.3864 18.5748 98.5199C18.5746 99.2756 18.654 99.9177 18.8129 100.446C18.9719 100.975 19.2005 101.377 19.4987 101.652C19.7997 101.928 20.1619 102.066 20.5852 102.066Z" fill="#808D9E"/>
</g>
<g filter="url(#filter1_d_1_2553)">
<rect x="172.054" y="84.9258" width="14" height="14" rx="7" transform="rotate(0.0158183 172.054 84.9258)" fill="#2280FF"/>
<rect x="173.053" y="85.9261" width="12" height="12" rx="6" transform="rotate(0.0158183 173.053 85.9261)" stroke="white" stroke-width="2"/>
</g>
<rect x="169.543" y="15.9258" width="12.2" height="10" rx="2" transform="rotate(0.0158183 169.543 15.9258)" fill="#FF5555"/>
<path d="M200.929 18.9342L199.696 18.9339C199.623 18.5792 199.495 18.2677 199.313 17.9991C199.134 17.7306 198.915 17.5052 198.657 17.3228C198.402 17.1371 198.118 16.9979 197.807 16.905C197.495 16.8121 197.171 16.7656 196.833 16.7655C196.216 16.7653 195.658 16.9209 195.157 17.2324C194.66 17.5438 194.264 18.0027 193.968 18.6092C193.677 19.2156 193.531 19.9597 193.53 20.8413C193.53 21.7229 193.676 22.467 193.967 23.0737C194.262 23.6803 194.658 24.1394 195.155 24.4511C195.655 24.7628 196.214 24.9187 196.83 24.9189C197.168 24.919 197.493 24.8727 197.805 24.78C198.116 24.6873 198.4 24.5498 198.655 24.3676C198.914 24.182 199.132 23.9551 199.311 23.6866C199.494 23.4149 199.622 23.1034 199.695 22.7521L200.927 22.7524C200.835 23.2728 200.665 23.7384 200.42 24.1493C200.175 24.5602 199.87 24.9098 199.505 25.1981C199.14 25.483 198.731 25.7 198.277 25.849C197.826 25.998 197.344 26.0725 196.83 26.0723C195.962 26.0721 195.189 25.8597 194.513 25.4353C193.837 25.0109 193.306 24.4075 192.918 23.6252C192.53 22.8429 192.337 21.9148 192.337 20.841C192.337 19.7671 192.532 18.8391 192.92 18.057C193.308 17.2749 193.84 16.6719 194.516 16.2478C195.192 15.8238 195.964 15.6118 196.833 15.6121C197.347 15.6122 197.829 15.6869 198.28 15.8362C198.734 15.9855 199.143 16.2043 199.507 16.4928C199.872 16.7779 200.177 17.126 200.422 17.5371C200.667 17.9448 200.836 18.4105 200.929 18.9342ZM205.362 26.0946C204.673 26.0944 204.068 25.9301 203.548 25.6019C203.031 25.2736 202.626 24.8144 202.335 24.2244C202.047 23.6344 201.903 22.9449 201.903 22.1561C201.903 21.3606 202.048 20.6663 202.336 20.0731C202.628 19.4799 203.032 19.0193 203.55 18.6914C204.07 18.3634 204.675 18.1995 205.364 18.1997C206.054 18.1999 206.657 18.3641 207.174 18.6924C207.694 19.0206 208.098 19.4814 208.386 20.0748C208.678 20.6682 208.824 21.3626 208.823 22.158C208.823 22.9468 208.677 23.6362 208.385 24.2261C208.097 24.816 207.692 25.2749 207.172 25.6029C206.655 25.9309 206.051 26.0947 205.362 26.0946ZM205.362 25.0406C205.886 25.0407 206.317 24.9066 206.655 24.6382C206.993 24.3699 207.244 24.017 207.406 23.5795C207.569 23.142 207.65 22.6681 207.65 22.1577C207.65 21.6473 207.569 21.1716 207.407 20.7308C207.245 20.2899 206.994 19.9335 206.656 19.6617C206.319 19.3898 205.888 19.2538 205.364 19.2536C204.84 19.2535 204.409 19.3893 204.071 19.661C203.733 19.9326 203.483 20.2889 203.32 20.7296C203.158 21.1704 203.076 21.646 203.076 22.1564C203.076 22.6668 203.157 23.1408 203.319 23.5784C203.482 24.0159 203.732 24.369 204.07 24.6375C204.408 24.9061 204.839 25.0404 205.362 25.0406ZM210.113 25.9368L210.115 18.3004L211.249 18.3007L211.249 19.4939L211.348 19.4939C211.507 19.0863 211.764 18.7699 212.119 18.5446C212.474 18.316 212.9 18.2018 213.397 18.2019C213.901 18.202 214.32 18.3165 214.654 18.5453C214.992 18.7707 215.256 19.0873 215.445 19.4951L215.524 19.4951C215.72 19.1007 216.013 18.7876 216.404 18.5557C216.796 18.3205 217.265 18.203 217.812 18.2031C218.494 18.2033 219.053 18.4172 219.487 18.8449C219.921 19.2693 220.138 19.9305 220.138 20.8287L220.136 25.9395L218.963 25.9392L218.964 20.8284C218.964 20.265 218.81 19.8622 218.502 19.6202C218.194 19.3782 217.831 19.2571 217.414 19.257C216.877 19.2568 216.461 19.4191 216.166 19.7438C215.87 20.0653 215.723 20.4729 215.723 20.9667L215.721 25.9383L214.528 25.938L214.53 20.7079C214.53 20.2737 214.389 19.924 214.107 19.6588C213.826 19.3902 213.463 19.2559 213.019 19.2558C212.714 19.2557 212.429 19.3368 212.163 19.4991C211.902 19.6615 211.689 19.8868 211.527 20.1751C211.368 20.4601 211.288 20.7898 211.288 21.1644L211.287 25.9371L210.113 25.9368ZM221.781 28.8036L221.783 18.3036L222.917 18.3039L222.917 19.517L223.056 19.5171C223.142 19.3845 223.261 19.2155 223.414 19.0101C223.57 18.8013 223.792 18.6157 224.08 18.4534C224.372 18.2878 224.766 18.205 225.264 18.2052C225.907 18.2053 226.473 18.3662 226.964 18.6879C227.454 19.0095 227.837 19.4653 228.112 20.0554C228.387 20.6454 228.524 21.3415 228.524 22.1436C228.524 22.9523 228.386 23.6532 228.111 24.2464C227.835 24.8363 227.454 25.2936 226.967 25.6183C226.48 25.9396 225.918 26.1002 225.281 26.1001C224.791 26.0999 224.398 26.0186 224.103 25.8561C223.808 25.6903 223.581 25.503 223.422 25.2941C223.263 25.082 223.141 24.9063 223.054 24.7671L222.955 24.767L222.954 28.804L221.781 28.8036ZM222.936 22.1221C222.936 22.6988 223.02 23.2076 223.189 23.6485C223.358 24.086 223.605 24.4291 223.929 24.6778C224.254 24.9232 224.652 25.0459 225.123 25.046C225.613 25.0462 226.022 24.917 226.351 24.6586C226.682 24.3968 226.931 24.0456 227.097 23.6048C227.266 23.1607 227.35 22.6669 227.351 22.1234C227.351 21.5864 227.268 21.1025 227.102 20.6716C226.94 20.2374 226.693 19.8942 226.362 19.6423C226.034 19.387 225.621 19.2592 225.124 19.2591C224.647 19.259 224.246 19.3798 223.921 19.6217C223.596 19.8602 223.351 20.1949 223.185 20.6258C223.019 21.0533 222.936 21.5521 222.936 22.1221ZM233.014 26.1022C232.278 26.102 231.644 25.9394 231.11 25.6145C230.58 25.2862 230.171 24.8287 229.883 24.242C229.598 23.6519 229.455 22.9658 229.456 22.1836C229.456 21.4014 229.599 20.712 229.884 20.1155C230.172 19.5157 230.574 19.0485 231.087 18.7139C231.604 18.376 232.208 18.2071 232.897 18.2073C233.295 18.2074 233.688 18.2738 234.075 18.4065C234.463 18.5391 234.816 18.7547 235.134 19.0531C235.452 19.3481 235.706 19.7393 235.894 20.2266C236.083 20.7138 236.178 21.3138 236.177 22.0264L236.177 22.5235L230.291 22.5219L230.291 21.5077L234.984 21.509C234.984 21.0781 234.898 20.6936 234.726 20.3555C234.557 20.0174 234.315 19.7505 234 19.5549C233.689 19.3592 233.321 19.2614 232.897 19.2612C232.43 19.2611 232.025 19.377 231.684 19.6089C231.346 19.8375 231.085 20.1357 230.903 20.5036C230.72 20.8714 230.629 21.2658 230.629 21.6868L230.629 22.3629C230.629 22.9396 230.728 23.4285 230.927 23.8296C231.129 24.2274 231.409 24.5307 231.767 24.7396C232.125 24.9452 232.541 25.0481 233.015 25.0482C233.323 25.0483 233.601 25.0053 233.85 24.9192C234.102 24.8298 234.319 24.6972 234.501 24.5216C234.684 24.3427 234.824 24.1207 234.924 23.8556L236.057 24.1741C235.938 24.5585 235.737 24.8965 235.456 25.1881C235.174 25.4764 234.826 25.7017 234.411 25.8639C233.997 26.0229 233.531 26.1023 233.014 26.1022ZM240.784 18.3089L240.784 19.3032L236.827 19.3021L236.827 18.3078L240.784 18.3089ZM237.981 16.4786L239.154 16.4789L239.152 23.7573C239.152 24.0887 239.2 24.3373 239.296 24.5031C239.395 24.6655 239.521 24.7749 239.674 24.8313C239.829 24.8844 239.994 24.9109 240.166 24.911C240.295 24.911 240.401 24.9044 240.484 24.8912C240.567 24.8746 240.633 24.8614 240.683 24.8515L240.921 25.9055C240.842 25.9353 240.731 25.9651 240.588 25.9949C240.446 26.028 240.265 26.0445 240.046 26.0445C239.715 26.0444 239.39 25.973 239.072 25.8304C238.757 25.6878 238.495 25.4707 238.287 25.1789C238.081 24.8872 237.978 24.5193 237.979 24.0752L237.981 16.4786ZM242.047 25.9456L242.049 18.3092L243.222 18.3096L243.22 25.9459L242.047 25.9456ZM242.646 17.0367C242.417 17.0366 242.22 16.9587 242.054 16.8028C241.892 16.647 241.811 16.4597 241.811 16.241C241.811 16.0222 241.892 15.835 242.055 15.6793C242.221 15.5235 242.418 15.4457 242.646 15.4458C242.875 15.4458 243.071 15.5238 243.233 15.6796C243.399 15.8354 243.482 16.0227 243.481 16.2414C243.481 16.4602 243.399 16.6474 243.233 16.8032C243.07 16.9589 242.875 17.0367 242.646 17.0367ZM248.192 18.3109L248.192 19.3052L244.235 19.3042L244.235 18.3098L248.192 18.3109ZM245.389 16.4806L246.562 16.4809L246.56 23.7593C246.56 24.0908 246.608 24.3394 246.704 24.5051C246.804 24.6676 246.929 24.777 247.082 24.8333C247.238 24.8864 247.402 24.913 247.574 24.913C247.703 24.9131 247.809 24.9065 247.892 24.8932C247.975 24.8767 248.041 24.8634 248.091 24.8535L248.329 25.9076C248.25 25.9374 248.139 25.9672 247.996 25.997C247.854 26.0301 247.673 26.0466 247.454 26.0465C247.123 26.0464 246.798 25.9751 246.48 25.8325C246.165 25.6899 245.903 25.4727 245.695 25.181C245.489 24.8893 245.387 24.5213 245.387 24.0772L245.389 16.4806ZM252.475 26.1076C251.786 26.1074 251.181 25.9431 250.661 25.6149C250.144 25.2866 249.74 24.8275 249.448 24.2374C249.16 23.6474 249.016 22.9579 249.016 22.1691C249.016 21.3737 249.161 20.6793 249.449 20.0861C249.741 19.4929 250.146 19.0323 250.663 18.7044C251.183 18.3764 251.788 18.2125 252.478 18.2127C253.167 18.2129 253.77 18.3771 254.287 18.7054C254.807 19.0336 255.212 19.4944 255.5 20.0878C255.791 20.6812 255.937 21.3756 255.937 22.171C255.936 22.9598 255.79 23.6492 255.499 24.2391C255.21 24.829 254.806 25.2879 254.285 25.6159C253.768 25.9439 253.165 26.1078 252.475 26.1076ZM252.476 25.0536C252.999 25.0537 253.43 24.9196 253.768 24.6512C254.107 24.3829 254.357 24.03 254.519 23.5925C254.682 23.155 254.763 22.6811 254.763 22.1707C254.764 21.6603 254.682 21.1846 254.52 20.7438C254.358 20.3029 254.108 19.9466 253.77 19.6747C253.432 19.4028 253.001 19.2668 252.477 19.2667C251.954 19.2665 251.523 19.4023 251.185 19.674C250.846 19.9457 250.596 20.3019 250.434 20.7427C250.271 21.1834 250.19 21.659 250.19 22.1694C250.189 22.6798 250.27 23.1538 250.433 23.5914C250.595 24.0289 250.845 24.382 251.183 24.6505C251.521 24.9191 251.952 25.0534 252.476 25.0536ZM257.227 25.9498L257.229 18.3134L258.362 18.3137L258.362 19.4671L258.442 19.4672C258.581 19.0894 258.833 18.7829 259.197 18.5476C259.562 18.3124 259.973 18.1949 260.431 18.195C260.517 18.195 260.624 18.1967 260.754 18.2C260.883 18.2034 260.981 18.2084 261.047 18.215L261.047 19.4082C261.007 19.3983 260.916 19.3833 260.773 19.3634C260.634 19.3402 260.487 19.3285 260.331 19.3285C259.96 19.3284 259.628 19.4062 259.336 19.5619C259.048 19.7143 258.819 19.9263 258.65 20.198C258.484 20.4665 258.401 20.773 258.401 21.1177L258.4 25.9501L257.227 25.9498Z" fill="#1D1E25"/>
<rect x="1.18262" y="15.8789" width="12.2" height="10" rx="2" transform="rotate(0.0158183 1.18262 15.8789)" fill="#2280FF"/>
<path d="M24.3759 15.7033L25.8475 15.7037L29.3054 24.1564L29.4247 24.1564L32.8872 15.7056L34.3588 15.706L34.356 25.8879L33.2026 25.8875L33.2047 18.1517L33.1053 18.1517L29.9214 25.8866L28.8077 25.8863L25.628 18.1497L25.5286 18.1496L25.5265 25.8854L24.3731 25.8851L24.3759 15.7033ZM36.9239 28.7522C36.7251 28.7522 36.5478 28.7355 36.392 28.7023C36.2362 28.6725 36.1285 28.6426 36.0689 28.6128L36.3675 27.5788C36.6525 27.6518 36.9044 27.6783 37.1231 27.6585C37.3419 27.6387 37.5358 27.541 37.7049 27.3653C37.8773 27.193 38.0348 26.913 38.1774 26.5253L38.3963 25.9287L35.5746 18.2518L36.8473 18.2522L38.9536 24.338L39.0331 24.338L41.1428 18.2534L42.4155 18.2537L39.1716 27.0028C39.0256 27.3972 38.8449 27.7236 38.6294 27.9821C38.4139 28.2439 38.1636 28.4377 37.8785 28.5635C37.5968 28.6894 37.2786 28.7523 36.9239 28.7522ZM46.8987 28.755L46.9016 18.255L48.0352 18.2553L48.0348 19.4683L48.174 19.4684C48.2602 19.3358 48.3796 19.1668 48.5321 18.9614C48.688 18.7526 48.9101 18.5671 49.1985 18.4047C49.4902 18.2391 49.8846 18.1564 50.3818 18.1565C51.0248 18.1567 51.5915 18.3176 52.0819 18.6392C52.5724 18.9608 52.9551 19.4167 53.23 20.0067C53.5049 20.5967 53.6423 21.2928 53.642 22.0949C53.6418 22.9036 53.5041 23.6046 53.2288 24.1978C52.9536 24.7876 52.5723 25.2449 52.085 25.5696C51.5977 25.891 51.0358 26.0516 50.3995 26.0514C49.9089 26.0512 49.5162 25.9699 49.2213 25.8074C48.9263 25.6416 48.6994 25.4543 48.5403 25.2455C48.3813 25.0333 48.2587 24.8576 48.1726 24.7184L48.0731 24.7184L48.072 28.7553L46.8987 28.755ZM48.054 22.0735C48.0538 22.6502 48.1382 23.1589 48.3071 23.5998C48.476 24.0374 48.7229 24.3805 49.0476 24.6291C49.3723 24.8745 49.77 24.9972 50.2407 24.9974C50.7312 24.9975 51.1406 24.8683 51.4688 24.6099C51.8003 24.3482 52.049 23.9969 52.2148 23.5561C52.384 23.1121 52.4686 22.6182 52.4688 22.0747C52.4689 21.5377 52.3862 21.0538 52.2206 20.6229C52.0583 20.1887 51.8115 19.8456 51.4801 19.5936C51.152 19.3383 50.7394 19.2106 50.2423 19.2104C49.765 19.2103 49.3639 19.3312 49.0391 19.573C48.7142 19.8116 48.4688 20.1463 48.303 20.5771C48.1371 21.0046 48.0541 21.5034 48.054 22.0735ZM54.9308 25.8935L54.9329 18.2572L56.0664 18.2575L56.0661 19.4109L56.1456 19.4109C56.2849 19.0331 56.5369 18.7266 56.9016 18.4914C57.2662 18.2562 57.6772 18.1386 58.1346 18.1387C58.2208 18.1388 58.3285 18.1405 58.4578 18.1438C58.587 18.1472 58.6848 18.1522 58.7511 18.1588L58.7508 19.352C58.711 19.342 58.6198 19.3271 58.4773 19.3072C58.3381 19.2839 58.1907 19.2723 58.0349 19.2722C57.6637 19.2721 57.3322 19.3499 57.0405 19.5056C56.7521 19.658 56.5233 19.8701 56.3542 20.1418C56.1884 20.4102 56.1055 20.7168 56.1054 21.0615L56.1041 25.8939L54.9308 25.8935ZM62.5096 26.0547C61.8202 26.0545 61.2153 25.8903 60.6951 25.562C60.1781 25.2338 59.7739 24.7746 59.4824 24.1846C59.1942 23.5945 59.0502 22.9051 59.0504 22.1163C59.0506 21.3208 59.195 20.6265 59.4835 20.0333C59.7754 19.4401 60.1798 18.9795 60.697 18.6515C61.2174 18.3235 61.8223 18.1596 62.5117 18.1598C63.2011 18.16 63.8043 18.3243 64.3213 18.6525C64.8415 18.9808 65.2458 19.4416 65.534 20.035C65.8255 20.6283 65.9711 21.3227 65.9709 22.1182C65.9707 22.907 65.8246 23.5964 65.5328 24.1862C65.2443 24.7761 64.8398 25.2351 64.3194 25.563C63.8022 25.891 63.199 26.0549 62.5096 26.0547ZM62.5099 25.0007C63.0335 25.0009 63.4644 24.8668 63.8026 24.5984C64.1407 24.33 64.3911 23.9771 64.5536 23.5397C64.7161 23.1022 64.7974 22.6283 64.7976 22.1179C64.7977 21.6074 64.7167 21.1318 64.5544 20.6909C64.3921 20.2501 64.1419 19.8937 63.804 19.6218C63.466 19.35 63.0351 19.214 62.5115 19.2138C61.9878 19.2137 61.5569 19.3494 61.2187 19.6211C60.8806 19.8928 60.6302 20.249 60.4677 20.6898C60.3052 21.1306 60.2239 21.6062 60.2237 22.1166C60.2236 22.627 60.3046 23.101 60.4669 23.5385C60.6292 23.9761 60.8794 24.3291 61.2174 24.5977C61.5553 24.8663 61.9862 25.0006 62.5099 25.0007ZM70.1443 26.0568C69.508 26.0567 68.9462 25.8958 68.4591 25.5741C67.972 25.2492 67.5909 24.7917 67.316 24.2016C67.0411 23.6083 66.9037 22.9073 66.9039 22.0986C66.9042 21.2965 67.0419 20.6005 67.3172 20.0106C67.5924 19.4207 67.9754 18.9651 68.466 18.6437C68.9566 18.3224 69.5234 18.1618 70.1664 18.162C70.6636 18.1621 71.0563 18.2451 71.3446 18.4109C71.6362 18.5733 71.8582 18.759 72.0106 18.9679C72.1664 19.1734 72.2873 19.3425 72.3734 19.4751L72.4729 19.4751L72.4739 15.7166L73.6472 15.7169L73.6444 25.8987L72.5108 25.8984L72.5112 24.7251L72.372 24.7251C72.2858 24.8642 72.1631 25.0399 72.0039 25.2519C71.8448 25.4607 71.6177 25.6479 71.3227 25.8135C71.0276 25.9759 70.6349 26.057 70.1443 26.0568ZM70.3037 25.0029C70.7744 25.003 71.1721 24.8805 71.497 24.6353C71.8219 24.3868 72.0689 24.0439 72.238 23.6064C72.4072 23.1656 72.4919 22.6569 72.492 22.0802C72.4922 21.5101 72.4095 21.0113 72.2439 20.5837C72.0783 20.1528 71.8331 19.818 71.5083 19.5792C71.1836 19.3372 70.7826 19.2161 70.3053 19.216C69.8081 19.2158 69.3938 19.3433 69.0623 19.5984C68.7341 19.8502 68.4871 20.1932 68.3213 20.6274C68.1587 21.0582 68.0774 21.5421 68.0772 22.079C68.0771 22.6225 68.1598 23.1164 68.3254 23.5606C68.4943 24.0015 68.7428 24.3528 69.0709 24.6148C69.4022 24.8734 69.8132 25.0028 70.3037 25.0029ZM80.2695 22.7784L80.2708 18.2642L81.4441 18.2645L81.442 25.9009L80.2687 25.9005L80.269 24.6079L80.1895 24.6079C80.0104 24.9956 79.7319 25.3253 79.354 25.597C78.9761 25.8654 78.4987 25.9995 77.922 25.9993C77.4448 25.9992 77.0206 25.8947 76.6494 25.6858C76.2782 25.4735 75.9867 25.1553 75.7747 24.731C75.5627 24.3034 75.4568 23.7647 75.4569 23.1151L75.4583 18.2628L76.6316 18.2632L76.6302 23.0359C76.6301 23.5927 76.7857 24.0369 77.0972 24.3684C77.412 24.6999 77.813 24.8658 78.3002 24.8659C78.5919 24.866 78.8885 24.7915 79.1902 24.6424C79.4951 24.4934 79.7504 24.2647 79.956 23.9566C80.1649 23.6484 80.2694 23.2557 80.2695 22.7784ZM86.1932 26.0613C85.4772 26.0611 84.8608 25.8919 84.3439 25.5537C83.8269 25.2154 83.4293 24.7497 83.1511 24.1563C82.8728 23.563 82.7338 22.8851 82.734 22.1228C82.7342 21.3472 82.8769 20.6629 83.1621 20.0697C83.4507 19.4731 83.8518 19.0076 84.3657 18.673C84.8828 18.335 85.4861 18.1662 86.1754 18.1664C86.7124 18.1665 87.1963 18.2661 87.6271 18.4651C88.0579 18.6641 88.4108 18.9426 88.6858 19.3006C88.9608 19.6586 89.1314 20.0763 89.1975 20.5536L88.0242 20.5532C87.9348 20.2052 87.7361 19.8969 87.4279 19.6284C87.123 19.3565 86.7121 19.2205 86.195 19.2204C85.7377 19.2202 85.3366 19.3394 84.9918 19.578C84.6504 19.8132 84.3835 20.1462 84.1911 20.577C84.0021 21.0046 83.9075 21.5067 83.9073 22.0834C83.9072 22.6733 83.9998 23.1871 84.1853 23.6246C84.3741 24.0622 84.6392 24.402 84.9805 24.644C85.3251 24.8861 85.7294 25.0072 86.1934 25.0073C86.4984 25.0074 86.7751 24.9544 87.0237 24.8484C87.2724 24.7424 87.4829 24.59 87.6553 24.3912C87.8277 24.1924 87.9504 23.9538 88.0234 23.6754L89.1967 23.6757C89.1302 24.1265 88.9661 24.5324 88.7041 24.8936C88.4455 25.2515 88.1024 25.5365 87.6748 25.7485C87.2505 25.9572 86.7566 26.0614 86.1932 26.0613ZM93.7344 18.2679L93.7341 19.2622L89.7767 19.2611L89.777 18.2668L93.7344 18.2679ZM90.9309 16.4376L92.1042 16.4379L92.1022 23.7163C92.1021 24.0477 92.1501 24.2963 92.2462 24.4621C92.3455 24.6245 92.4715 24.7339 92.6239 24.7903C92.7797 24.8434 92.9437 24.8699 93.1161 24.87C93.2453 24.87 93.3514 24.8634 93.4343 24.8502C93.5171 24.8336 93.5834 24.8204 93.6331 24.8105L93.8715 25.8645C93.7919 25.8943 93.6809 25.9241 93.5384 25.9539C93.3958 25.987 93.2152 26.0035 92.9964 26.0035C92.665 26.0034 92.3402 25.932 92.0221 25.7894C91.7072 25.6468 91.4455 25.4297 91.2367 25.1379C91.0313 24.8462 90.9287 24.4783 90.9288 24.0342L90.9309 16.4376Z" fill="#1D1E25"/>
</g>
<defs>
<filter id="filter0_d_1_2553" x="166.052" y="32.9355" width="116.008" height="82.0117" filterUnits="userSpaceOnUse" color-interpolation-filters="sRGB">
<feFlood flood-opacity="0" result="BackgroundImageFix"/>
<feColorMatrix in="SourceAlpha" type="matrix" values="0 0 0 0 0 0 0 0 0 0 0 0 0 0 0 0 0 0 127 0" result="hardAlpha"/>
<feOffset dy="4"/>
<feGaussianBlur stdDeviation="11"/>
<feComposite in2="hardAlpha" operator="out"/>
<feColorMatrix type="matrix" values="0 0 0 0 0.624722 0 0 0 0 0.6401 0 0 0 0 0.720833 0 0 0 0.25 0"/>
<feBlend mode="multiply" in2="BackgroundImageFix" result="effect1_dropShadow_1_2553"/>
<feBlend mode="normal" in="SourceGraphic" in2="effect1_dropShadow_1_2553" result="shape"/>
</filter>
<filter id="filter1_d_1_2553" x="168.052" y="82.9277" width="22" height="22" filterUnits="userSpaceOnUse" color-interpolation-filters="sRGB">
<feFlood flood-opacity="0" result="BackgroundImageFix"/>
<feColorMatrix in="SourceAlpha" type="matrix" values="0 0 0 0 0 0 0 0 0 0 0 0 0 0 0 0 0 0 127 0" result="hardAlpha"/>
<feOffset dy="2"/>
<feGaussianBlur stdDeviation="2"/>
<feColorMatrix type="matrix" values="0 0 0 0 0.268354 0 0 0 0 0.268354 0 0 0 0 0.31049 0 0 0 0.15 0"/>
<feBlend mode="normal" in2="BackgroundImageFix" result="effect1_dropShadow_1_2553"/>
<feBlend mode="normal" in="SourceGraphic" in2="effect1_dropShadow_1_2553" result="shape"/>
</filter>
<linearGradient id="paint0_linear_1_2553" x1="180.512" y1="54.9286" x2="180.462" y2="237.929" gradientUnits="userSpaceOnUse">
<stop stop-color="#2A85FF"/>
<stop offset="1" stop-color="#2A85FF" stop-opacity="0"/>
</linearGradient>
<clipPath id="clip0_1_2553">
<rect width="366" height="260" fill="white" transform="translate(0.577148 0.878906) rotate(0.0158183)"/>
</clipPath>
<clipPath id="clip1_1_2553">
<rect width="26.84" height="206" fill="white" transform="translate(325.692 54.9688) rotate(0.0158183)"/>
</clipPath>
<clipPath id="clip2_1_2553">
<rect width="29.28" height="206" fill="white" transform="translate(272.012 54.9551) rotate(0.0158183)"/>
</clipPath>
<clipPath id="clip3_1_2553">
<rect width="30.5" height="206" fill="white" transform="translate(217.112 54.9395) rotate(0.0158183)"/>
</clipPath>
<clipPath id="clip4_1_2553">
<rect width="48.8" height="206" fill="white" transform="translate(156.112 54.9219) rotate(0.0158183)"/>
</clipPath>
<clipPath id="clip5_1_2553">
<rect width="29.28" height="206" fill="white" transform="translate(114.632 54.9102) rotate(0.0158183)"/>
</clipPath>
<clipPath id="clip6_1_2553">
<rect width="32.94" height="206" fill="white" transform="translate(57.292 54.8945) rotate(0.0158183)"/>
</clipPath>
<clipPath id="clip7_1_2553">
<rect width="28.06" height="206" fill="white" transform="translate(4.83203 54.8809) rotate(0.0158183)"/>
</clipPath>
<clipPath id="clip8_1_2553">
<rect width="29.28" height="24" fill="white" transform="translate(-0.0839844 188.879) rotate(0.0158183)"/>
</clipPath>
<clipPath id="clip9_1_2553">
<rect width="29.28" height="24" fill="white" transform="translate(-0.0751953 154.879) rotate(0.0158183)"/>
</clipPath>
<clipPath id="clip10_1_2553">
<rect width="29.28" height="24" fill="white" transform="translate(-0.0654297 120.879) rotate(0.0158183)"/>
</clipPath>
<clipPath id="clip11_1_2553">
<rect width="29.28" height="24" fill="white" transform="translate(-0.0566406 86.8789) rotate(0.0158183)"/>
</clipPath>
</defs>
</svg>
