<svg width="28" height="34" viewBox="0 0 28 34" fill="none" xmlns="http://www.w3.org/2000/svg">
<path d="M10.0603 19.2727C9.47455 18.6869 8.5248 18.6869 7.93901 19.2727C7.35323 19.8585 7.35323 20.8082 7.93901 21.394L10.0603 19.2727ZM12.333 23.6667L11.2723 24.7273C11.8581 25.3131 12.8079 25.3131 13.3937 24.7273L12.333 23.6667ZM20.0603 18.0607C20.6461 17.4749 20.6461 16.5251 20.0603 15.9393C19.4745 15.3536 18.5248 15.3536 17.939 15.9393L20.0603 18.0607ZM24.1663 8.66667V28.6667H27.1663V8.66667H24.1663ZM22.333 30.5H5.66634V33.5H22.333V30.5ZM3.83301 28.6667V8.66667H0.833008V28.6667H3.83301ZM5.66634 6.83333H8.99967V3.83333H5.66634V6.83333ZM18.9997 6.83333H22.333V3.83333H18.9997V6.83333ZM5.66634 30.5C4.65382 30.5 3.83301 29.6792 3.83301 28.6667H0.833008C0.833008 31.336 2.99696 33.5 5.66634 33.5V30.5ZM24.1663 28.6667C24.1663 29.6792 23.3455 30.5 22.333 30.5V33.5C25.0024 33.5 27.1663 31.336 27.1663 28.6667H24.1663ZM27.1663 8.66667C27.1663 5.99729 25.0024 3.83333 22.333 3.83333V6.83333C23.3455 6.83333 24.1663 7.65414 24.1663 8.66667H27.1663ZM3.83301 8.66667C3.83301 7.65414 4.65382 6.83333 5.66634 6.83333V3.83333C2.99696 3.83333 0.833008 5.99729 0.833008 8.66667H3.83301ZM7.93901 21.394L11.2723 24.7273L13.3937 22.606L10.0603 19.2727L7.93901 21.394ZM13.3937 24.7273L20.0603 18.0607L17.939 15.9393L11.2723 22.606L13.3937 24.7273ZM12.333 3.5H15.6663V0.5H12.333V3.5ZM15.6663 7.16667H12.333V10.1667H15.6663V7.16667ZM12.333 7.16667C11.3205 7.16667 10.4997 6.34586 10.4997 5.33333H7.49967C7.49967 8.00271 9.66363 10.1667 12.333 10.1667V7.16667ZM17.4997 5.33333C17.4997 6.34586 16.6789 7.16667 15.6663 7.16667V10.1667C18.3357 10.1667 20.4997 8.00271 20.4997 5.33333H17.4997ZM15.6663 3.5C16.6789 3.5 17.4997 4.32081 17.4997 5.33333H20.4997C20.4997 2.66396 18.3357 0.5 15.6663 0.5V3.5ZM12.333 0.5C9.66363 0.5 7.49967 2.66396 7.49967 5.33333H10.4997C10.4997 4.32081 11.3205 3.5 12.333 3.5V0.5Z" fill="white"/>
</svg>
